<?xml version="1.0" encoding="UTF-8"?>
<svg version="1.1" xmlns="http://www.w3.org/2000/svg" width="217" height="216">
<path d="M0 0 C1.20740845 0.00737183 1.20740845 0.00737183 2.43920898 0.01489258 C14.54255158 0.2495701 26.26433528 2.67798442 35.125 11.4375 C40.77064865 18.43655757 43.9933347 27.16786733 47.625 35.3125 C48.5916491 37.45348584 49.55913626 39.59409345 50.52734375 41.734375 C52.9846332 47.18014504 55.42272913 52.63427801 57.85174561 58.09269714 C59.84600629 62.57184225 61.85160606 67.04577269 63.86277771 71.51734924 C65.34136056 74.80679187 66.81555799 78.09818934 68.28903198 81.3899231 C69.0090894 82.99622681 69.73085278 84.60176695 70.45437622 86.20651245 C71.46920462 88.45846331 72.47749693 90.71323551 73.484375 92.96875 C73.78792404 93.63834244 74.09147308 94.30793488 74.40422058 94.99781799 C75.9209574 98.41364684 77.07394283 101.60925406 77.625 105.3125 C78.285 105.3125 78.945 105.3125 79.625 105.3125 C79.98078125 104.17296875 80.3365625 103.0334375 80.703125 101.859375 C83.2299949 94.29054558 86.35618063 86.94471719 89.375 79.5625 C90.04009837 77.92989247 90.70488769 76.297159 91.36938477 74.66430664 C92.75366309 71.26349885 94.1392727 67.86323819 95.52587891 64.46337891 C98.56141869 57.01797749 101.58300758 49.56692053 104.60360718 42.115448 C105.24087655 40.5433979 105.87826593 38.97139644 106.51577759 37.39944458 C111.25339622 25.71749991 115.96126599 14.02416305 120.625 2.3125 C126.71221231 2.23848788 132.79916426 2.18396354 138.88671875 2.14770508 C140.95870524 2.13259414 143.03065963 2.11210459 145.10253906 2.08618164 C148.07625233 2.04989949 151.04954373 2.03279702 154.0234375 2.01953125 C155.41881241 1.99630547 155.41881241 1.99630547 156.84237671 1.97261047 C158.13348862 1.97227058 158.13348862 1.97227058 159.45068359 1.97192383 C160.21013275 1.96526199 160.96958191 1.95860016 161.75204468 1.95173645 C162.67915756 2.13031441 162.67915756 2.13031441 163.625 2.3125 C165.625 5.3125 165.625 5.3125 165.25 8.5 C165.04375 9.428125 164.8375 10.35625 164.625 11.3125 C163.28695312 11.56773438 163.28695312 11.56773438 161.921875 11.828125 C160.75140625 12.07046875 159.5809375 12.3128125 158.375 12.5625 C157.21484375 12.79453125 156.0546875 13.0265625 154.859375 13.265625 C151.33854231 14.40521819 149.85850535 15.39830731 147.625 18.3125 C146.75917742 21.0503515 146.49818611 23.52921498 146.49128723 26.39094543 C146.48702225 27.19408676 146.48275726 27.99722809 146.47836304 28.82470703 C146.47881622 29.69699951 146.47926941 30.56929199 146.47973633 31.46801758 C146.47637772 32.39370041 146.4730191 33.31938324 146.46955872 34.27311707 C146.46005712 37.33443544 146.45810592 40.39569905 146.45703125 43.45703125 C146.45381785 45.58688886 146.45045372 47.71674625 146.44694519 49.84660339 C146.44095571 54.31286124 146.43910508 58.77909975 146.43969727 63.24536133 C146.43979882 68.9617228 146.4261531 74.67795987 146.40892506 80.39429188 C146.39779273 84.79441393 146.39577845 89.19450604 146.39630699 93.59464073 C146.39512849 95.7017122 146.390714 97.80878448 146.38297462 99.91584206 C146.37315106 102.86691558 146.37606232 105.81772076 146.38208008 108.76879883 C146.37646057 109.63501862 146.37084106 110.5012384 146.36505127 111.39370728 C146.39097411 116.40957395 146.88680219 120.58758351 148.625 125.3125 C152.2794817 128.62437404 156.79038345 129.08595224 161.515625 129.8828125 C163.625 130.3125 163.625 130.3125 164.625 131.3125 C164.875 134.75 164.875 134.75 164.625 138.3125 C161.27111584 140.54842277 160.11645249 140.57624435 156.19140625 140.61889648 C155.08015381 140.63488388 153.96890137 140.65087128 152.82397461 140.66734314 C151.62393799 140.67270584 150.42390137 140.67806854 149.1875 140.68359375 C147.95588135 140.69262222 146.7242627 140.7016507 145.45532227 140.71095276 C142.84947141 140.72546983 140.24358399 140.73434559 137.63769531 140.73803711 C134.96216496 140.74235748 132.28759073 140.76328907 129.61230469 140.79956055 C125.76206907 140.84817463 121.91301003 140.86380493 118.0625 140.87109375 C116.26244507 140.90039223 116.26244507 140.90039223 114.42602539 140.93028259 C113.31477295 140.92420486 112.20352051 140.91812714 111.05859375 140.91186523 C110.07947021 140.91693588 109.10034668 140.92200653 108.09155273 140.92723083 C105.625 140.3125 105.625 140.3125 103.76586914 137.95082092 C102.43692169 134.87755884 102.63672388 133.45701494 103.625 130.3125 C104.60082031 130.14234375 105.57664062 129.9721875 106.58203125 129.796875 C107.85433594 129.55453125 109.12664062 129.3121875 110.4375 129.0625 C111.70207031 128.83046875 112.96664062 128.5984375 114.26953125 128.359375 C117.57384962 127.56959076 117.57384962 127.56959076 119.51171875 125.703125 C122.15330896 120.03065761 121.76893513 113.13183356 121.73852539 106.96875 C121.73874443 105.78193886 121.73874443 105.78193886 121.7389679 104.57115173 C121.73827742 101.9849055 121.73052601 99.39873347 121.72265625 96.8125 C121.72078899 95.00789428 121.71936654 93.20328805 121.71836853 91.39868164 C121.7145676 86.67066017 121.70475824 81.94266988 121.69366455 77.21466064 C121.68339809 72.38139264 121.67885973 67.54811954 121.67382812 62.71484375 C121.6631336 53.24738221 121.64608658 43.77994371 121.625 34.3125 C121.18420609 35.38835358 120.74341217 36.46420715 120.28926086 37.57266235 C112.49747724 56.58942569 104.69184322 75.60038727 96.84951782 94.59637451 C96.04523814 96.54456539 95.24117454 98.4928455 94.43734741 100.44122314 C92.56221907 104.98570971 90.68364089 109.52869123 88.796875 114.06835938 C87.31049907 117.64603946 85.84491473 121.23143071 84.390625 124.82226562 C83.67724293 126.56386746 82.96370772 128.30540658 82.25 130.046875 C81.92821777 130.85263977 81.60643555 131.65840454 81.27490234 132.48858643 C78.96443836 138.08620776 78.96443836 138.08620776 75.625 140.3125 C72.15820313 140.32055664 72.15820313 140.32055664 68.625 139.3125 C66.63867188 136.67749023 66.63867188 136.67749023 65.09375 133.18359375 C64.80858521 132.55811142 64.52342041 131.93262909 64.22961426 131.28819275 C63.33444945 129.30705315 62.47857961 127.31185643 61.625 125.3125 C61.07482047 124.07093196 60.52277643 122.83018824 59.96875 121.59033203 C58.31732142 117.86738438 56.71778688 114.1233326 55.125 110.375 C51.38060392 101.58831767 47.53135144 92.87193584 43.46386719 84.22973633 C40.44013427 77.80404935 37.49097672 71.34382645 34.53564453 64.88647461 C33.84256067 63.37302911 33.14854293 61.86001096 32.45361328 60.34741211 C31.42277035 58.10362835 30.39469615 55.85859353 29.3671875 53.61328125 C28.91386551 52.6283947 28.91386551 52.6283947 28.4513855 51.62361145 C25.69353035 45.58219289 23.15670031 39.45152598 20.625 33.3125 C20.58176469 52.16362844 20.63002475 71.01062535 20.88745117 89.86035156 C20.92136281 92.53821311 20.95052284 95.21561092 20.97143555 97.89355469 C21.00236299 101.83554866 21.05694076 105.77703349 21.11328125 109.71875 C21.11967117 110.91439575 21.1260611 112.1100415 21.13264465 113.34191895 C21.15243881 114.44918335 21.17223297 115.55644775 21.19262695 116.69726562 C21.20373001 117.66458618 21.21483307 118.63190674 21.22627258 119.62854004 C21.70172322 122.8289482 22.69309703 124.73174239 24.625 127.3125 C27.46119125 128.27263832 27.46119125 128.27263832 30.625 128.5 C36.36672185 129.14031457 36.36672185 129.14031457 39.625 131.3125 C40.27985413 136.44219065 40.27985413 136.44219065 38.37132263 138.97865295 C36.1936165 140.64199215 35.02963624 140.69728431 32.30883789 140.71655273 C31.0071743 140.73557899 31.0071743 140.73557899 29.67921448 140.75498962 C28.27759315 140.75058617 28.27759315 140.75058617 26.84765625 140.74609375 C25.88476181 140.7513356 24.92186737 140.75657745 23.92979431 140.76197815 C21.89306604 140.76840251 19.85630069 140.76705601 17.81958008 140.75854492 C14.70261529 140.75004124 11.58748648 140.77878065 8.47070312 140.81054688 C6.49218805 140.81215911 4.51366973 140.81158093 2.53515625 140.80859375 C1.13657127 140.82544472 1.13657127 140.82544472 -0.29026794 140.84263611 C-6.71046314 140.77348281 -6.71046314 140.77348281 -10.01000977 138.48461914 C-11.375 136.3125 -11.375 136.3125 -11.125 133.0625 C-10.8775 132.155 -10.63 131.2475 -10.375 130.3125 C-9.39917969 130.15394531 -8.42335938 129.99539062 -7.41796875 129.83203125 C-6.14566406 129.59871094 -4.87335937 129.36539063 -3.5625 129.125 C-2.29792969 128.90457031 -1.03335937 128.68414062 0.26953125 128.45703125 C3.68966295 127.63059554 3.68966295 127.63059554 5.30769348 125.17047119 C6.8964438 121.72358729 7.02258919 119.23216965 7.05737305 115.44042969 C7.0675647 114.76784622 7.07775635 114.09526276 7.08825684 113.40229797 C7.11840927 111.17957154 7.12767653 108.95727948 7.13671875 106.734375 C7.15360942 105.16472003 7.17176536 103.59507822 7.19111633 102.02545166 C7.23866595 97.87913262 7.2683809 93.73286629 7.29455566 89.58636475 C7.32387645 85.46240572 7.37084085 81.33865396 7.41601562 77.21484375 C7.49154796 70.08636455 7.5454666 62.95797138 7.58413506 55.82920074 C7.61057021 51.10525327 7.65667635 46.38190811 7.71337891 41.65820312 C7.73251431 39.42318062 7.75126306 37.18815476 7.76953125 34.953125 C7.78513596 33.97293396 7.80074066 32.99274292 7.81681824 31.98284912 C7.97428633 22.56558152 7.97428633 22.56558152 3.921875 14.44921875 C0.97438184 12.9905104 -1.96669915 12.04090725 -5.125 11.125 C-6.88070313 10.60873047 -6.88070313 10.60873047 -8.671875 10.08203125 C-9.56390625 9.82808594 -10.4559375 9.57414062 -11.375 9.3125 C-11.5625 5.9375 -11.5625 5.9375 -11.375 2.3125 C-7.55948422 -0.23117719 -4.42480256 -0.03143975 0 0 Z " fill="#070505" transform="translate(27.375,35.6875)"/>
<path d="M0 0 C0.66 0.33 1.32 0.66 2 1 C1.99476318 1.65516602 1.98952637 2.31033203 1.98413086 2.98535156 C1.86123938 21.49685235 2.00177582 40.01009645 2.23732471 58.5202198 C2.28086616 61.94668648 2.31957637 65.37303861 2.34616089 68.79968262 C2.37689159 72.70396574 2.43161726 76.60772191 2.48828125 80.51171875 C2.49467621 81.6969664 2.50107117 82.88221405 2.50765991 84.1033783 C2.52744904 85.20194656 2.54723816 86.30051483 2.56762695 87.43237305 C2.57873001 88.39064499 2.58983307 89.34891693 2.60127258 90.33622742 C3.07851711 93.52454813 4.07677414 95.42736303 6 98 C8.83619125 98.96013832 8.83619125 98.96013832 12 99.1875 C17.74172185 99.82781457 17.74172185 99.82781457 21 102 C21.375 104.9375 21.375 104.9375 21 108 C19.5 109.875 19.5 109.875 18 111 C16.8422494 107.52674819 16.93133348 104.63932552 17 101 C16.11248047 101.05220703 16.11248047 101.05220703 15.20703125 101.10546875 C9.13662304 101.31342727 5.93776768 100.51808658 1.25 96.5 C-1.77218104 92.87338275 -1.18646374 88.31812439 -1.23706055 83.86010742 C-1.25017273 83.03050003 -1.26328491 82.20089264 -1.27679443 81.34614563 C-1.31862561 78.59930042 -1.35311972 75.85242624 -1.38671875 73.10546875 C-1.41237718 71.1959873 -1.43816117 69.28650754 -1.46406555 67.37702942 C-1.51705537 63.37142437 -1.56597361 59.36579192 -1.61254883 55.36010742 C-1.67285903 50.23201453 -1.7470999 45.1042276 -1.82492352 39.97637463 C-1.88258969 36.03102666 -1.93085581 32.08560405 -1.976511 28.14010048 C-1.99988571 26.24986655 -2.02663027 24.35967114 -2.05682945 22.46953392 C-2.09810114 19.82239226 -2.12621427 17.17541558 -2.15112305 14.52807617 C-2.16609329 13.75019745 -2.18106354 12.97231873 -2.19648743 12.17086792 C-2.2223212 7.71676216 -1.66084615 4.13636833 0 0 Z " fill="#102749" transform="translate(46,65)"/>
<path d="M0 0 C0.33 0.66 0.66 1.32 1 2 C0.21625 2.37125 -0.5675 2.7425 -1.375 3.125 C-4.76719137 5.54799384 -5.01014307 6.96997202 -6 11 C-6.27343439 14.13009912 -6.27348592 17.24204644 -6.25878906 20.38256836 C-6.2622937 21.30854324 -6.26579834 22.23451813 -6.26940918 23.18855286 C-6.27818689 26.23906019 -6.2723908 29.28933419 -6.265625 32.33984375 C-6.2669729 34.4668431 -6.26891448 36.59384215 -6.27142334 38.72084045 C-6.27436934 43.17517027 -6.27009419 47.62941977 -6.26074219 52.08374023 C-6.24935497 57.78436404 -6.25590589 63.48479935 -6.26788712 69.18541622 C-6.27512575 73.57696443 -6.27280845 77.96846821 -6.26763153 82.36001778 C-6.26630022 84.46150294 -6.26792454 86.56299218 -6.27259064 88.66447258 C-6.27768799 91.6057689 -6.2699002 94.54676319 -6.25878906 97.48803711 C-6.26283752 98.35111481 -6.26688599 99.2141925 -6.27105713 100.10342407 C-6.23618896 105.1034259 -5.78125898 109.3034176 -4 114 C-1.52246503 115.97296178 -1.52246503 115.97296178 1 117 C0.505 117.99 0.505 117.99 0 119 C-3.57393904 117.01447831 -6.55931822 115.30431256 -9 112 C-9.60367985 108.66191283 -9.5357492 105.35488561 -9.50170898 101.97070312 C-9.50711197 100.95241928 -9.51251495 99.93413544 -9.51808167 98.88499451 C-9.53059577 95.51678462 -9.51405945 92.149425 -9.49609375 88.78125 C-9.49624867 86.44242305 -9.49773657 84.10359583 -9.50050354 81.76477051 C-9.50188874 76.86210792 -9.48930882 71.95973745 -9.46655273 67.05712891 C-9.4381681 60.76866168 -9.44090399 54.48067997 -9.45364285 48.19217682 C-9.46059344 43.36236413 -9.45281776 38.53266393 -9.44038582 33.7028656 C-9.43586532 31.38399181 -9.43553972 29.06510597 -9.43945122 26.74623108 C-9.44235729 23.50700066 -9.42588463 20.26844242 -9.40405273 17.02929688 C-9.41080521 15.58755348 -9.41080521 15.58755348 -9.41769409 14.11668396 C-9.40778946 13.23347977 -9.39788483 12.35027557 -9.38768005 11.44030762 C-9.38403521 10.29217213 -9.38403521 10.29217213 -9.38031673 9.12084198 C-8.9027506 6.45768724 -7.66879513 5.08912427 -6 3 C-6 2.34 -6 1.68 -6 1 C-4.02 0.67 -2.04 0.34 0 0 Z " fill="#061123" transform="translate(180,47)"/>
<path d="M0 0 C0.99 0.33 1.98 0.66 3 1 C3.02361876 8.60020764 3.0411584 16.20041129 3.05181217 23.80064774 C3.05693644 27.3332579 3.06383215 30.86584222 3.07543945 34.3984375 C3.12227485 49.13818564 3.08481566 63.87403053 2.68359375 78.609375 C2.66136246 79.75964172 2.63913116 80.90990845 2.6162262 82.09503174 C2.41818199 88.12284828 1.85750886 92.65551534 -1 98 C-2.2748678 95.4502644 -1.79602002 94.7603196 -1.07470703 92.04345703 C0.65867188 83.8886185 0.24610072 75.59914844 0.1953125 67.3046875 C0.19157617 65.50294147 0.18873213 63.70119338 0.18673706 61.89944458 C0.17914942 57.1878485 0.15954347 52.47637833 0.1373291 47.76483154 C0.11676505 42.94480085 0.10771289 38.12474954 0.09765625 33.3046875 C0.07629239 23.86973675 0.04221615 14.4348789 0 5 C-0.38333496 5.96413818 -0.76666992 6.92827637 -1.16162109 7.92163086 C-2.58228359 11.4895213 -4.01192188 15.05375644 -5.44433594 18.61694336 C-6.06366476 20.16120371 -6.6805372 21.70645151 -7.29492188 23.25268555 C-8.1771871 25.47186718 -9.0681535 27.68737657 -9.9609375 29.90234375 C-10.23497406 30.5971434 -10.50901062 31.29194305 -10.79135132 32.00779724 C-12.77225659 36.88612829 -12.77225659 36.88612829 -15 38 C-12.75735215 29.44623907 -9.34586045 21.45509324 -5.8125 13.375 C-5.24753604 12.07183593 -4.68307932 10.76845183 -4.11914062 9.46484375 C-2.7519219 6.30734219 -1.37789915 3.15285795 0 0 Z " fill="#493431" transform="translate(149,65)"/>
<path d="M0 0 C1 2 1 2 0.43359375 3.95068359 C0.10488281 4.75844238 -0.22382813 5.56620117 -0.5625 6.3984375 C-0.94003418 7.3356665 -1.31756836 8.27289551 -1.70654297 9.23852539 C-2.13338379 10.27356201 -2.56022461 11.30859863 -3 12.375 C-3.65766357 13.99233032 -3.65766357 13.99233032 -4.32861328 15.64233398 C-5.58966119 18.73248298 -6.85918106 21.81886681 -8.13391113 24.90338135 C-9.0529078 27.12807863 -9.96944144 29.35378092 -10.88574219 31.57958984 C-12.87553946 36.40997807 -14.874022 41.23673449 -16.875 46.0625 C-17.19887695 46.84526306 -17.52275391 47.62802612 -17.85644531 48.43450928 C-18.79435085 50.69856052 -19.73639129 52.96084648 -20.6796875 55.22265625 C-21.09334061 56.22301155 -21.09334061 56.22301155 -21.51535034 57.24357605 C-23.48056003 61.93775962 -25.68745022 66.46655829 -28 71 C-28.66 70.67 -29.32 70.34 -30 70 C-29.34 69.01 -28.68 68.02 -28 67 C-27.83300768 63.87478167 -27.83300768 63.87478167 -28 61 C-27.34 61 -26.68 61 -26 61 C-25.87882812 60.39671875 -25.75765625 59.7934375 -25.6328125 59.171875 C-25.38144531 57.97304687 -25.38144531 57.97304687 -25.125 56.75 C-24.88136719 55.56664062 -24.88136719 55.56664062 -24.6328125 54.359375 C-23.81171237 51.29798932 -22.93712311 48.86030974 -20.5703125 46.6875 C-18.22492861 44.16708746 -17.12788244 41.15638315 -15.875 38 C-15.60856689 37.33444092 -15.34213379 36.66888184 -15.06762695 35.9831543 C-13.20153927 31.08357141 -12.27535941 26.53614176 -12.10546875 21.26953125 C-12.00215093 19.04628487 -11.61303904 17.13337587 -11 15 C-9.68 15.33 -8.36 15.66 -7 16 C-6.57847656 14.92878906 -6.15695313 13.85757813 -5.72265625 12.75390625 C-5.16940681 11.35671698 -4.61601398 9.95958449 -4.0625 8.5625 C-3.78470703 7.85544922 -3.50691406 7.14839844 -3.22070312 6.41992188 C-1.11328125 1.11328125 -1.11328125 1.11328125 0 0 Z " fill="#122342" transform="translate(133,104)"/>
<path d="M0 0 C2.41005228 7.23015685 -1.63665704 14.96651468 -4.78125 21.45703125 C-6.04025677 23.98103572 -6.04025677 23.98103572 -6.96875 26.63671875 C-8 29 -8 29 -9.45043945 30.39697266 C-11.18610077 32.19252209 -11.90323284 33.70056542 -12.82421875 36.01171875 C-13.13037109 36.76904297 -13.43652344 37.52636719 -13.75195312 38.30664062 C-14.21504883 39.48516602 -14.21504883 39.48516602 -14.6875 40.6875 C-15.16799805 41.88342773 -15.16799805 41.88342773 -15.65820312 43.10351562 C-16.44565711 45.06627407 -17.22374743 47.03278459 -18 49 C-19.16577045 45.50268866 -18.8387261 44.93475045 -17.47705078 41.65209961 C-17.11982941 40.7778685 -16.76260803 39.90363739 -16.39456177 39.00291443 C-15.99880951 38.0622261 -15.60305725 37.12153778 -15.1953125 36.15234375 C-14.79674042 35.18470596 -14.39816833 34.21706818 -13.98751831 33.22010803 C-12.70888918 30.12214599 -11.41703488 27.02989168 -10.125 23.9375 C-9.26086457 21.84866046 -8.39757257 19.75947178 -7.53515625 17.66992188 C-5.95575508 13.85065703 -4.37348509 10.03264378 -2.78173828 6.21850586 C-2.46117462 5.45034042 -2.14061096 4.68217499 -1.81033325 3.89073181 C-1.24684881 2.5759666 -0.63970654 1.27941308 0 0 Z " fill="#583924" transform="translate(126,93)"/>
<path d="M0 0 C3 3.75 3 3.75 3 6 C3.99 6 4.98 6 6 6 C6.10957031 6.63808594 6.21914062 7.27617187 6.33203125 7.93359375 C6.49058594 8.75988281 6.64914063 9.58617187 6.8125 10.4375 C6.96332031 11.26121094 7.11414063 12.08492187 7.26953125 12.93359375 C7.51058594 13.61550781 7.75164062 14.29742187 8 15 C8.99 15.33 9.98 15.66 11 16 C11.703125 18.4140625 11.703125 18.4140625 12.25 21.625 C13.54866166 28.00538118 15.78375026 33.32198526 18.75097656 39.06103516 C19.56706292 40.67546686 20.29093561 42.33578416 21 44 C20.67 44.99 20.34 45.98 20 47 C8.49981995 22.20777818 8.49981995 22.20777818 3.25 10.5625 C2.91548828 9.83111816 2.58097656 9.09973633 2.23632812 8.34619141 C0.9130177 5.38866375 0 3.27878082 0 0 Z " fill="#5B3B28" transform="translate(73,122)"/>
<path d="M0 0 C0.33 0 0.66 0 1 0 C1 11.22 1 22.44 1 34 C0.01 34 -0.98 34 -2 34 C-1.84152588 33.14841309 -1.68305176 32.29682617 -1.51977539 31.41943359 C-1.00187484 28.01233398 -0.79415096 24.73212975 -0.68359375 21.2890625 C-0.64169922 20.04511719 -0.59980469 18.80117187 -0.55664062 17.51953125 C-0.51732422 16.23433594 -0.47800781 14.94914063 -0.4375 13.625 C-0.39431641 12.31660156 -0.35113281 11.00820312 -0.30664062 9.66015625 C-0.20087571 6.44020203 -0.09878421 3.22017469 0 0 Z M-5 34 C-4.34 34.66 -3.68 35.32 -3 36 C-3.99 36.99 -4.98 37.98 -6 39 C-6.33 38.67 -6.66 38.34 -7 38 C-8.66617115 37.95936168 -10.33388095 37.957279 -12 38 C-9.68143083 36.45428722 -7.49361571 35.20381448 -5 34 Z " fill="#220200" transform="translate(151,128)"/>
<path d="M0 0 C4.51535027 3.834491 6.40429321 9.75669 8.83544922 15.02441406 C9.74939804 16.99869966 10.68062445 18.96418328 11.61328125 20.9296875 C12.1963787 22.1817957 12.77844591 23.43438429 13.359375 24.6875 C13.89014648 25.82574219 14.42091797 26.96398437 14.96777344 28.13671875 C16 31 16 31 15 34 C13.49373883 30.87797994 11.99606757 27.75191601 10.5 24.625 C9.85611328 23.29082031 9.85611328 23.29082031 9.19921875 21.9296875 C8.79316406 21.07890625 8.38710937 20.228125 7.96875 19.3515625 C7.59169922 18.56604004 7.21464844 17.78051758 6.82617188 16.97119141 C6 15 6 15 6 13 C5.01 12.67 4.02 12.34 3 12 C2.05078125 9.27734375 2.05078125 9.27734375 1.3125 5.9375 C1.06113281 4.83277344 0.80976562 3.72804687 0.55078125 2.58984375 C0.36902344 1.73519531 0.18726562 0.88054688 0 0 Z " fill="#152946" transform="translate(64,51)"/>
<path d="M0 0 C1 2 1 2 0.47094727 3.78759766 C0.02319946 4.84019775 0.02319946 4.84019775 -0.43359375 5.9140625 C-0.75263672 6.67460938 -1.07167969 7.43515625 -1.40039062 8.21875 C-1.74263672 9.0128125 -2.08488281 9.806875 -2.4375 10.625 C-2.77587891 11.42679688 -3.11425781 12.22859375 -3.46289062 13.0546875 C-4.30166778 15.03939964 -5.14995245 17.02008875 -6 19 C-6.66 19 -7.32 19 -8 19 C-8.99 21.97 -9.98 24.94 -11 28 C-11.96070434 25.11788698 -12.10581883 23.30149956 -12.0625 20.3125 C-12.05347656 19.50425781 -12.04445313 18.69601563 -12.03515625 17.86328125 C-12.02355469 17.24839844 -12.01195313 16.63351563 -12 16 C-10.33333333 16 -8.66666667 16 -7 16 C-6.36771484 14.39318359 -6.36771484 14.39318359 -5.72265625 12.75390625 C-5.16940681 11.35671698 -4.61601398 9.95958449 -4.0625 8.5625 C-3.78470703 7.85544922 -3.50691406 7.14839844 -3.22070312 6.41992188 C-1.11328125 1.11328125 -1.11328125 1.11328125 0 0 Z " fill="#0D1932" transform="translate(133,104)"/>
<path d="M0 0 C0.66 0 1.32 0 2 0 C2.4125 0.80050781 2.825 1.60101563 3.25 2.42578125 C4.77911903 5.25422133 4.77911903 5.25422133 7.8125 5.85546875 C8.864375 5.96503906 9.91625 6.07460937 11 6.1875 C16.74172185 6.82781457 16.74172185 6.82781457 20 9 C20.375 11.9375 20.375 11.9375 20 15 C18.5 16.875 18.5 16.875 17 18 C15.8422494 14.52674819 15.93133348 11.63932552 16 8 C15.11248047 8.05220703 15.11248047 8.05220703 14.20703125 8.10546875 C9.33749525 8.27228809 5.8408896 8.37532722 2 5 C0.6875 2.3125 0.6875 2.3125 0 0 Z " fill="#10192B" transform="translate(47,158)"/>
<path d="M0 0 C2.475 0.495 2.475 0.495 5 1 C5.6875 3.8125 5.6875 3.8125 6 7 C4.75 8.875 4.75 8.875 3 10 C2.01 10 1.02 10 0 10 C0 6.7 0 3.4 0 0 Z " fill="#070F23" transform="translate(187,38)"/>
<path d="M0 0 C2.8358562 2.46886304 4.19600752 5.0994988 5.75 8.5 C6.42289062 9.93859375 6.42289062 9.93859375 7.109375 11.40625 C8 14 8 14 7 17 C4 11.25 4 11.25 4 9 C3.34 9 2.68 9 2 9 C0.14223235 5.86501708 -0.20140476 3.62528568 0 0 Z " fill="#0F2443" transform="translate(80,86)"/>
<path d="M0 0 C2.44168979 3.03056792 4.13027389 6.09018596 5.75 9.625 C6.19859375 10.58664063 6.6471875 11.54828125 7.109375 12.5390625 C7.40328125 13.35117188 7.6971875 14.16328125 8 15 C7.67 15.66 7.34 16.32 7 17 C4.17965397 15.58982699 4.02527016 13.91174979 2.9375 11 C1.88571928 7.74402427 1.88571928 7.74402427 0 5 C-0.04063832 3.33382885 -0.042721 1.66611905 0 0 Z " fill="#000419" transform="translate(83,95)"/>
<path d="M0 0 C5.67023649 1.35005631 8.17957309 3.8157229 12 8 C11.67 8.66 11.34 9.32 11 10 C10.443125 9.3503125 10.443125 9.3503125 9.875 8.6875 C7.96147949 6.80144701 7.96147949 6.80144701 4.9375 5.5625 C1.88931172 3.94112325 1.09802208 3.18426404 0 0 Z " fill="#262F47" transform="translate(52,41)"/>
<path d="M0 0 C0.99 0 1.98 0 3 0 C3 2.97 3 5.94 3 9 C2.01 8.67 1.02 8.34 0 8 C-1.125 2.25 -1.125 2.25 0 0 Z " fill="#452815" transform="translate(17,166)"/>
<path d="M0 0 C0.33 1.32 0.66 2.64 1 4 C0.01 4 -0.98 4 -2 4 C-2 3.34 -2 2.68 -2 2 C-1.34 2 -0.68 2 0 2 C0 1.34 0 0.68 0 0 Z M-5 4 C-4.34 4.66 -3.68 5.32 -3 6 C-3.99 6.99 -4.98 7.98 -6 9 C-6.33 8.67 -6.66 8.34 -7 8 C-8.66617115 7.95936168 -10.33388095 7.957279 -12 8 C-9.68143083 6.45428722 -7.49361571 5.20381448 -5 4 Z " fill="#170D08" transform="translate(151,158)"/>
<path d="M0 0 C0.99 0.33 1.98 0.66 3 1 C3 3.97 3 6.94 3 10 C0 8 0 8 -0.75 6.125 C-1.02298092 3.80466218 -0.71043724 2.21024918 0 0 Z " fill="#4D3321" transform="translate(131,166)"/>
<path d="M0 0 C3 1 3 1 4.625 3.9375 C5.07875 4.948125 5.5325 5.95875 6 7 C6.33 7.66 6.66 8.32 7 9 C6.01 10.485 6.01 10.485 5 12 C3.35 8.04 1.7 4.08 0 0 Z " fill="#1E0701" transform="translate(86,150)"/>
<path d="M0 0 C0.33 0.66 0.66 1.32 1 2 C0.236875 2.4125 -0.52625 2.825 -1.3125 3.25 C-3.9366642 4.95875809 -5.30321976 6.41017753 -7 9 C-6.67 6.36 -6.34 3.72 -6 1 C-4.02 0.67 -2.04 0.34 0 0 Z " fill="#0D1426" transform="translate(180,47)"/>
<path d="M0 0 C4.8 3.44615385 4.8 3.44615385 5.8125 6.25 C5.874375 6.8275 5.93625 7.405 6 8 C4.02 7.01 2.04 6.02 0 5 C0 3.35 0 1.7 0 0 Z " fill="#000515" transform="translate(59,47)"/>
<path d="M0 0 C0.33 0 0.66 0 1 0 C1.309375 0.94875 1.61875 1.8975 1.9375 2.875 C2.87394742 5.86080408 2.87394742 5.86080408 4 8 C1.03 7.505 1.03 7.505 -2 7 C-1.34 4.69 -0.68 2.38 0 0 Z " fill="#2C0F0A" transform="translate(18,38)"/>
<path d="M0 0 C0.33 0 0.66 0 1 0 C1 2.64 1 5.28 1 8 C-0.98 8.66 -2.96 9.32 -5 10 C-4.54625 9.46375 -4.0925 8.9275 -3.625 8.375 C-1.78311688 5.68301698 -0.92028067 3.11479612 0 0 Z " fill="#2C120A" transform="translate(36,154)"/>
<path d="M0 0 C1.65 1.65 3.3 3.3 5 5 C4.34 6.32 3.68 7.64 3 9 C2.67 8.01 2.34 7.02 2 6 C1.34 6 0.68 6 0 6 C-1 3 -1 3 0 0 Z " fill="#01061A" transform="translate(76,79)"/>
</svg>
