<?xml version="1.0" standalone="no"?>
<!DOCTYPE svg PUBLIC "-//W3C//DTD SVG 20010904//EN"
 "http://www.w3.org/TR/2001/REC-SVG-20010904/DTD/svg10.dtd">
<svg version="1.0" xmlns="http://www.w3.org/2000/svg"
 width="300.000000pt" height="502.000000pt" viewBox="0 0 300.000000 502.000000"
 preserveAspectRatio="xMidYMid meet">
<metadata>
Created by potrace 1.10, written by Peter Selinger 2001-2011
</metadata>
<g transform="translate(0.000000,502.000000) scale(0.100000,-0.100000)"
fill="#000000" stroke="none">
<path d="M1655 3470 c-21 -16 -45 -30 -55 -30 -18 0 -51 -32 -69 -67 -6 -12
-31 -28 -59 -37 -60 -20 -110 -71 -151 -153 -36 -72 -38 -101 -13 -134 11 -13
22 -46 25 -72 4 -27 14 -64 23 -84 16 -33 16 -37 -5 -80 -19 -39 -20 -50 -10
-80 8 -25 8 -46 0 -76 -5 -23 -13 -70 -17 -105 -5 -52 -3 -69 15 -103 22 -42
61 -191 61 -234 0 -29 -16 -41 -34 -26 -24 20 -59 7 -62 -22 -3 -32 -6 -31 41
-11 43 18 55 10 55 -38 0 -21 -5 -28 -19 -28 -10 0 -21 7 -25 15 -3 8 -1 15 4
15 6 0 10 4 10 10 0 17 -29 -1 -32 -21 -4 -27 -22 -25 -30 3 -7 25 -8 24 -12
-10 -3 -22 -21 -41 -38 -42 -12 0 -9 10 7 26 8 9 15 20 15 25 0 5 -7 9 -15 9
-8 0 -15 5 -15 10 0 6 9 10 20 10 13 0 20 7 20 19 0 23 -22 40 -28 23 -2 -7
-9 -12 -17 -12 -7 0 -14 -18 -18 -47 -3 -26 -10 -49 -16 -51 -7 -2 -5 -9 4
-19 12 -12 14 -29 9 -81 -4 -37 -10 -69 -14 -72 -4 -3 -10 -26 -14 -53 -7 -45
-8 -47 -34 -41 -15 4 -32 11 -39 16 -8 6 -25 5 -47 -3 -31 -11 -38 -11 -55 5
-21 19 -91 39 -91 26 0 -4 15 -11 34 -14 39 -8 50 -26 31 -53 -10 -14 -24 -18
-66 -17 l-53 2 3 58 c1 32 5 62 7 66 8 13 104 1 122 -14 21 -18 42 -31 42 -25
0 9 -36 44 -52 50 -10 3 -18 14 -18 22 0 9 4 14 10 10 5 -3 16 8 25 26 9 17
19 28 23 25 3 -4 0 -12 -6 -18 -7 -7 -12 -18 -12 -25 0 -27 18 -11 41 37 36
74 49 64 28 -22 -10 -39 -23 -74 -29 -78 -8 -5 -6 -9 5 -14 21 -8 25 -8 24 2
-6 35 3 49 39 59 l37 10 -32 2 c-31 1 -32 3 -27 34 12 70 54 137 85 137 6 0 7
5 4 11 -4 5 0 18 7 27 46 53 19 36 -36 -23 -35 -38 -62 -73 -59 -79 4 -5 1 -6
-6 -2 -7 5 -32 -11 -65 -42 -28 -27 -62 -53 -74 -56 -24 -8 -29 -22 -9 -29 6
-2 0 -2 -15 0 -25 4 -154 -34 -203 -60 -22 -11 -75 -53 -77 -61 -16 -68 -14
-105 13 -190 16 -50 32 -106 35 -124 4 -18 10 -34 14 -37 15 -9 52 -134 45
-152 -7 -23 -53 -56 -68 -50 -7 3 -23 25 -36 51 -13 25 -27 46 -31 46 -11 0
-19 -35 -26 -112 -4 -38 -11 -68 -16 -68 -5 0 -6 31 -2 71 8 94 7 89 26 126
15 30 15 33 -1 47 -10 9 -22 16 -27 16 -6 0 -27 16 -48 35 -21 19 -46 37 -57
40 -10 4 -19 11 -19 17 0 5 7 8 15 4 9 -3 15 0 15 9 0 8 9 15 20 15 11 0 20 5
20 11 0 6 7 8 16 5 13 -5 15 2 10 52 -3 31 -3 49 0 39 7 -23 24 -12 24 16 0
11 11 32 24 46 13 15 26 40 30 56 7 29 6 29 -33 -15 -22 -25 -40 -48 -41 -53
0 -4 -11 -12 -25 -17 -37 -14 -47 -40 -143 -360 -64 -212 -100 -359 -107 -435
-3 -38 -19 -128 -34 -200 -16 -71 -41 -202 -56 -290 -29 -171 -60 -335 -71
-374 -6 -19 -4 -22 12 -19 10 2 19 10 20 18 4 63 2 60 39 57 35 -2 35 -3 32
-40 -7 -70 10 -23 27 73 9 52 18 102 20 110 4 17 13 116 21 230 3 41 7 91 10
110 17 122 51 212 40 105 -5 -43 -3 -56 4 -45 6 8 11 30 11 48 0 17 2 32 5 32
13 0 95 -45 95 -52 0 -4 7 -8 15 -8 19 0 19 -9 0 -90 -20 -85 -23 -92 -34 -85
-6 3 -2 29 10 62 10 31 19 66 18 77 -1 12 -7 1 -15 -24 -23 -75 -21 -72 -46
-60 l-23 11 21 -18 c17 -15 19 -24 12 -51 -8 -28 -11 -31 -28 -22 -14 8 -20 8
-20 0 0 -6 7 -13 15 -16 10 -4 13 -14 9 -30 -4 -15 -2 -24 5 -24 6 0 11 9 11
20 0 11 4 20 9 20 15 0 23 -18 11 -25 -13 -8 -13 -55 0 -55 6 0 10 14 10 30 0
34 7 36 57 15 19 -8 46 -15 60 -15 22 0 23 -3 17 -37 -3 -21 -10 -42 -15 -47
-11 -13 -12 -26 0 -26 4 0 18 39 31 87 12 49 33 124 45 168 36 124 87 370 99
474 7 62 16 96 25 99 10 3 11 -3 6 -27 -5 -25 -3 -31 10 -31 9 0 14 -3 12 -8
-3 -4 -6 -47 -8 -97 -2 -49 -6 -94 -9 -100 -3 -5 -5 -68 -5 -139 0 -86 -4
-131 -11 -133 -10 -3 -10 -23 2 -80 6 -33 29 -28 28 5 0 16 -4 34 -8 41 -4 6
-3 18 3 25 6 7 9 21 5 30 -5 14 3 16 55 16 l61 0 2 -67 c2 -105 -3 -171 -18
-258 -8 -44 -17 -93 -19 -110 -3 -16 -9 -54 -14 -82 -4 -29 -5 -53 -1 -53 4 0
12 28 18 63 6 34 20 105 31 157 12 52 21 109 21 125 l0 30 82 -2 83 -2 -2 -61
c-1 -34 -9 -93 -18 -131 -21 -94 -33 -189 -24 -189 4 0 13 33 19 73 7 39 19
101 27 137 20 90 41 270 32 276 -4 2 -10 -2 -12 -8 -3 -7 -6 16 -7 52 -2 116
-18 346 -27 390 -4 19 -7 50 -8 68 0 19 -5 32 -12 32 -17 0 -16 -26 0 -81 7
-24 15 -71 16 -104 2 -33 4 -71 5 -85 1 -22 -3 -25 -31 -24 -18 1 -33 -2 -33
-7 0 -5 15 -9 34 -9 32 0 34 -2 34 -35 l0 -35 -48 0 c-27 0 -55 -3 -64 -6 -12
-5 -16 0 -16 20 0 28 6 31 42 18 13 -5 34 -5 48 -1 22 6 21 7 -11 8 -20 1 -39
4 -43 9 -4 4 -13 7 -19 7 -8 0 -13 21 -13 55 -1 30 -2 79 -3 108 0 28 -4 52
-8 52 -5 0 -7 -73 -6 -163 1 -89 2 -187 2 -217 l1 -55 70 0 c59 0 67 2 56 14
-8 7 -36 14 -62 15 -49 1 -49 1 -51 38 l-3 37 62 -4 63 -4 5 -48 c3 -26 9 -53
13 -60 4 -7 1 -13 -10 -15 -15 -3 -16 -4 0 -20 9 -9 17 -18 17 -21 0 -2 -40
-4 -89 -4 l-90 -1 -5 287 c-3 157 -6 304 -8 326 -2 30 1 39 11 37 38 -8 111
-9 111 -1 0 16 39 10 48 -7 15 -26 22 6 12 52 -19 88 -36 404 -21 404 6 0 11
-3 11 -7 14 -281 28 -444 41 -457 6 -6 9 -6 9 1 0 6 38 12 98 15 106 6 132 13
132 34 0 10 12 14 40 14 22 0 43 0 48 1 4 0 8 -7 10 -15 2 -11 -3 -15 -19 -14
-12 2 -24 -3 -26 -10 -4 -9 3 -12 23 -10 27 3 28 1 40 -62 7 -36 13 -83 13
-106 l1 -41 -72 -13 c-40 -6 -77 -12 -83 -11 -10 0 -30 111 -30 170 0 31 3 35
35 43 55 14 62 17 55 27 -3 6 -20 4 -42 -6 -21 -8 -51 -16 -68 -18 -16 -2 -60
-6 -97 -10 -87 -8 -89 -24 -4 -18 59 5 65 4 64 -13 0 -11 3 -47 7 -81 5 -45 4
-63 -4 -63 -6 0 -11 4 -11 9 0 5 -15 12 -32 16 -18 4 -41 9 -50 11 -10 3 -18
1 -18 -4 0 -5 21 -13 46 -17 52 -7 52 -17 0 -17 -20 0 -39 -5 -43 -11 -4 -7
15 -8 61 -3 59 6 67 5 64 -9 -2 -12 -19 -17 -74 -19 l-71 -3 -12 106 c-7 58
-14 108 -17 110 -13 14 -13 -18 0 -109 8 -56 15 -105 14 -109 0 -3 0 -49 1
-100 1 -67 4 -92 12 -84 9 9 157 7 168 -3 2 -2 -1 -10 -7 -17 -7 -8 -9 -29 -5
-50 4 -24 2 -37 -6 -37 -6 0 -11 -4 -11 -10 0 -5 9 -10 21 -10 14 0 19 -5 17
-18 -2 -13 -16 -18 -58 -23 l-55 -5 50 -5 c36 -3 51 -9 53 -21 3 -14 -7 -16
-77 -15 -58 2 -81 -1 -81 -10 0 -9 20 -11 76 -8 75 5 75 5 68 -17 -4 -13 -8
-33 -9 -46 -1 -12 -7 -28 -13 -34 -15 -15 -16 -38 -2 -38 6 0 10 5 10 10 0 6
14 10 30 10 25 0 30 -4 30 -25 0 -14 4 -25 8 -25 5 0 7 29 5 64 l-4 63 40 7
c26 4 41 12 41 21 0 12 -5 12 -35 -1 -19 -7 -36 -14 -37 -14 -2 0 -4 49 -4
109 l-2 110 57 6 c31 3 62 7 70 8 8 1 16 7 18 13 3 8 -17 8 -72 -1 -66 -10
-75 -10 -73 3 2 8 16 16 33 18 62 6 95 15 95 26 0 6 -12 8 -32 4 -90 -18 -98
-19 -98 -2 0 10 9 16 24 16 14 0 28 5 31 10 4 7 -5 9 -24 5 -30 -5 -31 -4 -31
32 0 21 -3 48 -6 61 -6 19 -3 22 23 22 17 0 43 4 59 9 16 5 42 12 57 16 l29 6
-7 -98 c-4 -70 -3 -93 5 -81 14 23 15 292 1 351 -6 27 -13 72 -16 100 -9 94
-16 161 -21 196 -4 24 -2 32 8 29 7 -3 13 -11 14 -19 1 -26 16 -194 19 -219 2
-14 10 -57 19 -96 18 -84 12 -299 -9 -351 -7 -17 -17 -58 -21 -90 -4 -32 -13
-75 -20 -97 -20 -56 -18 -95 4 -91 9 2 25 4 35 4 9 1 17 8 17 16 0 13 -4 14
-21 4 -28 -15 -48 3 -29 26 7 8 15 13 17 11 3 -2 26 2 51 10 26 7 48 14 50 14
2 0 1 -21 -3 -47 -4 -27 -8 -61 -11 -78 -8 -60 -16 -85 -27 -84 -12 2 -75 -8
-109 -18 -10 -2 -18 -9 -18 -14 0 -11 75 -1 103 13 10 5 21 7 24 4 3 -3 -1
-41 -10 -83 -24 -119 -27 -143 -19 -143 8 0 52 212 87 420 13 74 31 171 41
215 9 44 24 115 33 157 9 42 20 81 25 85 14 14 5 -41 -61 -340 -8 -38 -12 -80
-9 -93 4 -13 2 -24 -3 -24 -5 0 -13 -33 -19 -72 -6 -40 -20 -116 -32 -168 -11
-52 -23 -115 -25 -140 l-5 -45 16 50 c9 28 19 68 23 90 9 51 15 61 41 68 14 4
20 0 20 -11 0 -12 3 -13 11 -5 16 16 5 39 -21 46 -16 4 -20 2 -16 -9 3 -8 -1
-14 -8 -14 -14 0 -14 13 5 75 5 17 11 47 14 69 2 21 9 44 16 52 6 7 8 23 4 35
-10 31 26 191 42 185 7 -3 15 -1 18 3 2 5 -5 11 -16 14 -24 6 -21 30 4 35 10
2 17 -3 17 -12 0 -12 11 -16 50 -16 28 0 50 5 50 10 0 6 -17 10 -38 10 -55 0
-94 20 -87 45 2 11 10 47 16 80 7 33 17 63 23 67 8 6 7 11 -3 17 -10 6 -10 10
-1 16 14 9 7 50 -23 125 -24 63 -36 84 -95 168 -23 34 -45 69 -49 79 -4 10
-19 29 -33 43 -15 14 -46 55 -70 90 -24 36 -49 70 -55 77 -14 13 -28 50 -47
117 -8 31 -20 51 -30 54 -10 2 -18 8 -18 12 0 4 -11 5 -24 3 -16 -3 -29 3 -42
19 -11 12 -29 28 -39 34 -20 11 -34 54 -17 54 5 0 9 6 10 13 4 48 16 97 23 97
5 0 9 -7 9 -15 0 -28 29 -74 81 -128 28 -29 54 -68 59 -87 5 -20 22 -45 39
-57 l29 -22 -12 25 c-6 13 -14 24 -18 24 -3 0 -12 17 -19 37 -6 20 -31 57 -55
82 -24 25 -44 51 -44 58 0 7 -4 13 -10 13 -5 0 -17 14 -26 32 -13 25 -15 48
-11 104 8 94 13 102 55 110 21 4 42 10 47 14 23 18 62 13 102 -14 36 -24 52
-28 110 -28 40 0 69 4 71 11 2 6 15 11 28 11 13 0 24 4 24 9 0 5 -27 3 -60 -4
-33 -7 -57 -9 -54 -4 3 5 0 9 -5 9 -6 0 -11 -5 -11 -10 0 -7 -6 -7 -19 0 -11
5 -29 10 -40 10 -11 0 -32 15 -46 35 -27 35 -34 76 -22 140 3 16 2 34 -2 40
-5 5 -12 26 -16 45 -3 19 -9 43 -11 53 -9 32 16 17 33 -20 20 -41 31 -45 122
-44 67 1 77 3 67 19 -4 6 -21 7 -43 1 -23 -5 -54 -4 -80 3 -41 10 -47 17 -44
46 1 6 -3 13 -9 13 -5 1 -15 2 -22 3 -14 1 -27 44 -20 64 3 10 12 5 27 -14 16
-20 33 -29 56 -30 19 -1 53 -5 77 -8 25 -3 40 -1 37 5 -4 5 3 9 13 9 11 0 22
7 26 15 3 8 1 15 -4 15 -20 0 -9 21 16 32 25 12 29 10 61 -27 27 -31 31 -41
19 -43 -17 -4 -21 -14 -9 -25 3 -4 11 -3 17 3 8 6 12 3 12 -9 0 -12 -6 -17
-18 -13 -12 3 -18 -1 -18 -12 0 -9 -7 -16 -15 -16 -8 0 -15 -4 -15 -10 0 -5 6
-10 14 -10 8 0 18 5 21 10 3 6 12 10 20 10 17 0 3 -69 -16 -81 -8 -4 -10 -11
-6 -15 14 -14 44 28 57 80 12 52 12 55 -14 89 -15 20 -27 39 -26 42 3 14 -42
58 -76 74 -38 19 -84 16 -91 -6 -3 -9 3 -9 26 0 23 8 33 8 45 -2 27 -22 -21
-51 -83 -51 -28 0 -51 -4 -51 -10 0 -5 21 -10 48 -11 41 0 44 -2 22 -10 -40
-16 -111 -4 -132 23 -23 30 -23 60 2 76 11 7 20 19 20 27 0 8 5 15 10 15 6 0
10 11 10 25 0 13 8 39 19 58 27 49 11 65 -68 68 -34 1 -64 5 -66 9 -3 4 1 19
8 34 9 20 19 26 42 25 l30 0 -30 -13 -30 -13 30 -8 c17 -4 35 -12 42 -17 13
-10 33 -3 33 13 0 5 -10 9 -22 10 -22 0 -22 1 -3 9 20 9 20 9 0 9 -17 1 -17 3
-5 11 12 8 10 10 -10 11 -14 1 -29 1 -33 0 -19 -3 -33 24 -26 49 5 14 11 41
14 61 3 20 16 48 29 62 13 14 26 32 29 39 4 10 6 10 6 1 1 -18 26 -16 42 4 13
15 12 15 -7 5 -28 -15 -38 -3 -17 20 10 11 12 18 4 18 -6 0 -14 -7 -17 -15 -4
-8 -12 -15 -20 -15 -8 0 -14 -5 -14 -11 0 -15 -22 -35 -47 -43 -16 -5 -23 -2
-28 14 -4 12 -4 24 -1 27 3 3 -4 13 -14 22 -11 9 -23 31 -26 49 -6 29 -4 32
17 32 17 0 20 3 10 9 -8 5 -9 11 -3 15 5 3 12 24 16 46 5 31 10 40 23 38 10
-2 18 2 18 8 0 21 50 64 73 64 13 0 36 9 50 21 20 15 28 17 32 7 7 -18 27 -20
33 -4 3 9 -3 16 -15 20 -18 4 -19 7 -8 20 7 9 9 16 4 16 -14 1 68 40 83 40 8
0 12 -4 9 -9 -3 -5 0 -11 8 -14 9 -4 12 0 9 12 -3 12 2 20 16 24 12 3 21 11
21 19 0 10 -3 9 -11 -2 -9 -13 -10 -13 -6 0 5 19 50 22 81 6 13 -7 37 -11 53
-9 15 2 52 6 81 9 45 6 55 4 67 -12 11 -15 16 -17 26 -6 10 9 10 12 1 12 -7 0
-12 5 -12 10 0 17 18 11 40 -12 17 -18 24 -20 39 -11 14 9 25 8 50 -8 17 -10
31 -14 31 -9 0 26 37 -13 65 -67 31 -60 55 -92 55 -74 0 7 8 7 26 -1 19 -9 24
-17 20 -34 -4 -13 -1 -26 6 -30 8 -5 9 -2 5 9 -3 9 -2 19 4 22 15 10 29 -38
15 -54 -9 -11 -8 -13 4 -9 19 6 53 -57 44 -84 -4 -14 -2 -18 5 -14 7 5 11 -6
11 -34 0 -27 -5 -43 -15 -46 -22 -9 -18 -19 13 -34 25 -11 25 -13 8 -19 -14
-5 -16 -10 -8 -15 7 -4 12 -18 12 -32 0 -22 -3 -24 -22 -19 -23 7 -23 7 -3 -8
11 -9 17 -19 13 -23 -4 -4 -13 -3 -20 3 -14 9 -87 19 -78 10 3 -3 18 -8 33
-11 45 -8 67 -17 67 -27 0 -5 -3 -9 -7 -10 -23 -2 -57 -10 -62 -14 -2 -3 12
-5 32 -5 43 0 44 -2 16 -41 -11 -16 -17 -29 -13 -29 3 0 2 -6 -4 -13 -6 -7
-13 -30 -15 -50 -4 -44 -14 -57 -23 -32 -4 10 -1 21 7 27 12 8 12 9 -1 5 -8
-2 -25 6 -38 18 -15 14 -32 20 -47 17 -29 -5 -78 -48 -71 -61 4 -5 0 -12 -6
-14 -10 -4 -10 -6 0 -6 18 -1 15 -18 -10 -40 -16 -16 -25 -18 -35 -9 -11 8
-12 7 -7 -6 9 -24 -15 -20 -41 8 -25 27 -35 24 -35 -7 0 -16 3 -17 14 -8 11 9
16 9 22 0 4 -8 3 -9 -4 -5 -7 4 -12 1 -12 -7 0 -8 -7 -27 -14 -43 -8 -15 -13
-31 -10 -36 3 -4 -4 -8 -15 -8 -12 0 -21 -4 -21 -9 0 -6 9 -8 21 -6 20 4 20 3
5 -20 -12 -18 -12 -25 -3 -28 9 -3 8 -12 -5 -35 -15 -29 -15 -30 3 -35 15 -4
19 0 19 23 0 16 4 30 9 32 4 2 15 36 23 77 14 73 14 74 47 77 l33 4 -6 -45
c-6 -36 -4 -45 7 -45 8 0 21 7 28 16 11 14 10 22 -9 55 -26 46 -26 46 -4 46
16 0 62 -40 62 -56 0 -4 -5 -12 -12 -19 -9 -9 -9 -12 3 -12 9 0 21 11 28 24
14 26 7 64 -12 63 -33 -1 -47 4 -47 17 0 8 9 18 20 21 11 3 20 11 20 16 0 5 7
9 15 9 8 0 15 -8 15 -18 0 -10 4 -22 9 -27 5 -6 11 -21 14 -35 2 -14 5 -5 6
22 0 25 -2 53 -5 62 -8 20 -38 21 -54 1 -7 -8 -22 -15 -34 -15 -19 1 -18 3 12
30 18 17 38 30 45 30 44 -1 72 -79 52 -148 -15 -50 -55 -120 -84 -146 -22 -20
-73 -26 -103 -12 -13 6 -18 4 -18 -8 0 -11 9 -16 29 -16 24 0 28 -3 24 -20 -3
-11 -9 -20 -13 -20 -4 0 -10 -17 -13 -37 -3 -21 -10 -60 -17 -86 -8 -31 -9
-57 -3 -75 5 -15 6 -45 2 -67 -4 -22 -8 -67 -9 -100 0 -64 -30 -145 -52 -145
-13 0 -88 -143 -88 -167 0 -7 -25 -42 -55 -78 -30 -35 -55 -68 -55 -73 0 -5
-7 -15 -15 -22 -20 -17 -87 -117 -108 -161 -9 -20 -23 -42 -31 -48 -8 -7 -12
-19 -9 -27 3 -8 0 -14 -6 -14 -6 0 -8 -8 -5 -18 3 -9 -2 -5 -11 11 -9 15 -13
32 -10 37 3 6 2 10 -3 10 -4 0 -18 18 -31 40 -12 22 -27 45 -34 52 -7 7 -18
26 -26 41 -8 15 -39 51 -69 80 -30 29 -66 64 -80 80 -14 15 -30 27 -36 27 -5
0 3 -13 19 -30 27 -28 24 -45 -3 -18 -7 7 -12 9 -12 5 0 -4 21 -29 48 -56 26
-27 62 -65 80 -85 46 -51 40 -29 -7 24 -22 25 -38 47 -35 49 6 7 44 -30 75
-73 27 -37 28 -40 11 -53 -14 -12 -14 -14 -1 -10 21 7 43 -8 35 -22 -4 -6 -15
-12 -24 -12 -9 -1 -1 -4 18 -8 31 -5 36 -12 58 -66 32 -79 54 -125 47 -98 -7
24 5 36 24 24 10 -7 10 -17 -3 -55 -19 -54 -19 -56 -7 -56 5 0 12 12 16 27 3
15 15 46 26 70 10 23 19 44 19 47 0 11 52 118 55 114 3 -3 -19 -72 -42 -128
-31 -75 -65 -182 -59 -187 3 -3 8 0 11 8 3 8 17 49 33 93 l28 79 66 1 c46 1
64 -2 61 -10 -5 -13 -98 -28 -113 -19 -6 3 -10 1 -10 -4 0 -6 5 -12 10 -12 6
-1 16 -2 23 -3 6 -1 27 1 45 5 39 8 39 7 10 -88 l-22 -73 -69 0 c-43 0 -66 -4
-62 -10 3 -5 33 -10 66 -10 46 0 59 -3 59 -15 0 -12 -13 -15 -55 -15 -33 0
-55 -4 -55 -11 0 -7 19 -10 53 -7 42 2 51 0 49 -12 -2 -8 -6 -48 -9 -87 l-6
-73 -53 0 c-45 0 -54 3 -54 18 0 14 -2 15 -10 2 -22 -34 -12 -42 50 -38 33 1
60 1 60 -2 0 -3 -10 -54 -22 -114 l-22 -108 -63 4 c-56 4 -63 2 -63 -15 0 -11
4 -15 11 -11 6 3 39 7 72 8 l62 1 7 45 c3 25 18 111 32 191 14 80 28 171 30
203 3 31 10 65 15 74 4 9 14 42 20 72 7 30 16 64 21 75 14 31 30 98 25 103 -2
3 -9 -7 -14 -22 -10 -24 -15 -26 -71 -26 -33 0 -60 4 -60 9 0 12 28 90 46 129
12 25 19 30 31 24 9 -5 36 -7 61 -4 l45 5 -7 -29 c-4 -16 -9 -45 -11 -64 -5
-52 -23 -126 -51 -215 -15 -44 -28 -91 -30 -105 -1 -14 -8 -65 -14 -115 -6
-49 -13 -106 -16 -125 -10 -66 -49 -245 -77 -350 -8 -30 -17 -67 -21 -83 -6
-24 -11 -27 -46 -27 -22 0 -40 -5 -40 -11 0 -6 16 -9 38 -8 28 2 36 0 34 -11
-4 -17 -4 -18 -26 -120 -19 -89 -18 -80 -6 -80 6 0 10 9 10 20 0 24 77 347 90
378 9 20 16 22 85 22 68 0 76 -2 71 -17 -2 -10 -12 -46 -22 -81 -9 -34 -21
-65 -25 -68 -5 -3 -9 -10 -9 -16 0 -7 6 -6 15 2 8 7 15 9 15 5 0 -4 6 -2 14 4
8 6 36 14 63 18 l50 5 -4 -58 c-3 -33 -8 -89 -12 -126 -4 -37 -4 -73 1 -80 6
-10 8 -8 9 5 1 9 2 20 3 25 3 11 16 186 21 275 8 152 11 156 105 157 25 0 52
5 60 11 11 8 -3 9 -53 6 -47 -3 -67 -1 -64 6 4 12 136 37 140 28 2 -3 0 -51
-3 -106 l-5 -100 -50 -7 c-27 -4 -62 -9 -78 -12 -24 -5 -27 -3 -23 17 12 58
16 141 7 132 -8 -8 -24 -192 -35 -412 -2 -36 9 -44 17 -14 2 11 28 30 57 44
28 14 47 28 41 31 -6 4 -32 -5 -57 -19 l-47 -26 6 53 c4 29 7 69 7 90 l0 36
53 5 c28 2 62 8 75 12 22 7 22 6 22 -69 0 -60 -3 -76 -15 -76 -11 0 -13 8 -10
30 3 16 7 44 10 62 4 26 3 30 -7 20 -7 -7 -14 -46 -16 -87 -4 -66 -6 -74 -26
-78 -20 -4 -20 -4 2 -6 15 -1 22 -7 22 -23 0 -35 11 -14 13 26 3 50 22 46 20
-4 -1 -22 3 -40 8 -40 5 0 9 11 9 25 0 21 5 25 30 25 17 0 30 5 30 11 0 7 -11
8 -30 4 l-30 -7 0 60 c0 98 12 182 25 182 16 0 39 27 27 32 -5 1 -6 37 -3 78
l6 75 33 5 c31 5 32 6 12 18 -12 7 -20 8 -20 2 0 -5 -5 -10 -11 -10 -6 0 -9 7
-7 16 2 11 16 18 42 21 21 2 48 9 59 15 18 9 19 8 12 -18 -10 -39 -24 -168
-19 -173 8 -9 12 5 17 67 2 35 8 66 12 70 4 4 5 -21 2 -56 -3 -37 -1 -62 5
-62 5 0 8 30 7 70 -1 39 0 72 2 74 2 2 26 7 52 10 l48 7 -7 -38 c-4 -21 -7
-46 -6 -55 0 -10 -4 -21 -10 -24 -6 -4 -5 -10 3 -15 33 -21 -88 -69 -174 -69
-19 0 -21 21 -8 88 5 24 5 42 -1 42 -10 0 -16 -14 -21 -45 -1 -11 -6 -26 -10
-32 -5 -7 -4 -13 2 -13 6 0 9 -53 8 -136 -2 -122 -4 -135 -19 -131 -9 3 -25
-1 -35 -8 -16 -12 -14 -13 20 -9 l37 4 1 -52 c1 -41 3 -46 8 -24 3 16 12 31
20 34 11 4 13 -3 8 -29 -5 -23 -4 -29 3 -18 5 8 11 32 13 53 2 23 12 42 25 52
23 16 29 34 12 34 -5 0 -10 -7 -10 -16 0 -8 -5 -12 -10 -9 -6 4 -8 21 -6 38 3
18 8 58 11 89 l6 57 -33 -10 c-42 -12 -40 -12 -36 8 2 12 14 18 38 19 19 1 35
3 35 4 0 1 16 3 35 6 19 2 39 9 44 14 6 6 18 10 28 10 10 0 18 4 18 8 0 11 80
35 88 27 4 -4 -4 -15 -17 -26 -21 -17 -21 -19 -4 -19 17 0 19 -6 15 -62 -5
-83 -2 -78 -47 -94 -54 -19 -55 -18 -56 19 0 26 -2 28 -8 12 -5 -11 -7 -23 -4
-27 2 -4 -1 -17 -7 -28 -13 -25 -13 -25 45 0 69 30 73 28 65 -27 -4 -26 -5
-53 -3 -60 3 -7 -2 -13 -11 -13 -9 0 -16 -4 -16 -10 0 -5 6 -9 13 -7 7 1 12
-8 12 -23 0 -30 31 -40 39 -13 3 10 10 88 15 173 12 188 52 468 82 570 46 159
107 240 183 240 30 0 37 4 34 17 -2 9 -9 18 -17 21 -8 3 -11 0 -7 -6 3 -6 -4
-9 -18 -8 -13 0 -22 4 -19 8 2 5 -3 8 -12 8 -9 0 -19 -9 -22 -20 -6 -24 -26
-26 -43 -5 -7 8 -18 15 -24 15 -6 0 -2 -7 8 -15 19 -14 19 -16 3 -47 l-17 -33
6 34 c4 23 3 31 -5 27 -6 -4 -11 -14 -11 -23 0 -35 -24 -83 -42 -83 -10 0 -18
-6 -18 -14 0 -19 -7 -23 -54 -31 -28 -6 -37 -5 -32 4 4 6 13 42 20 79 11 61
14 67 38 70 15 2 32 11 40 19 11 15 11 16 -7 8 -11 -4 -36 -9 -55 -11 -19 -1
-60 -7 -90 -12 -55 -10 -72 -4 -65 22 2 6 8 34 15 61 21 88 29 101 68 114 20
7 43 15 49 17 9 4 12 -4 9 -28 -2 -18 -4 -56 -5 -84 l-1 -51 -52 -8 c-29 -5
-56 -7 -60 -7 -5 1 -8 -3 -8 -8 0 -7 17 -8 48 -4 26 4 59 8 75 8 15 1 27 4 27
8 0 5 10 8 23 9 37 1 92 25 93 40 0 8 8 31 17 53 21 47 21 52 2 36 -8 -7 -15
-19 -15 -27 0 -32 -31 -72 -65 -83 -20 -7 -39 -10 -41 -7 -10 9 9 159 20 162
6 2 27 8 46 14 l35 10 -42 -3 c-37 -3 -43 -1 -43 15 0 16 8 19 50 19 28 0 51
-1 53 -2 1 -1 12 4 25 11 15 8 21 18 18 27 -3 8 -2 13 2 10 10 -6 46 64 38 72
-3 2 -11 -8 -18 -24 -11 -28 -12 -28 -16 -6 -2 13 2 30 8 38 10 11 9 14 -4 14
-10 0 -17 -9 -17 -22 -1 -13 -3 -38 -3 -55 -1 -18 -4 -34 -7 -37 -2 -2 -32 -7
-66 -10 l-63 -7 6 88 c4 49 11 95 16 103 8 12 9 12 4 -2 -5 -16 2 -17 57 -15
54 2 62 0 59 -15 -2 -10 2 -18 8 -18 5 0 10 7 10 15 0 14 3 13 24 -2 13 -10
22 -21 19 -25 -2 -4 3 -5 11 -2 21 8 20 2 -5 -40 -29 -49 -15 -46 16 4 29 46
30 50 10 50 -8 0 -15 4 -15 8 0 4 -13 13 -30 19 -16 6 -30 18 -30 27 0 21 20
20 50 -4 31 -25 36 -25 36 -1 0 11 -3 18 -7 16 -9 -6 -69 18 -69 28 0 4 -5 5
-12 1 -7 -5 -9 -1 -6 13 3 12 0 20 -8 20 -8 0 -14 -6 -14 -13 0 -6 -15 -14
-32 -16 -18 -3 -40 -8 -48 -11 -10 -5 -19 1 -26 18 -9 18 -9 25 0 28 8 3 7 11
-2 27 -11 18 -11 21 0 14 11 -6 11 -5 0 8 -10 12 -9 22 2 50 14 32 19 36 68
41 43 6 55 4 66 -10 7 -10 12 -12 12 -4 0 7 4 10 10 6 5 -3 7 -13 4 -23 -5
-14 -4 -14 4 -3 9 12 15 13 39 2 20 -9 25 -9 16 0 -8 8 -9 19 -2 37 5 13 7 27
5 30 -3 2 -8 -7 -12 -22 -3 -14 -10 -26 -15 -26 -12 0 -11 18 5 63 8 20 10 39
7 42 -4 2 -14 -18 -21 -45 -8 -28 -14 -50 -14 -50 -1 0 -21 6 -46 14 -26 8
-53 10 -65 5 -31 -12 -45 -10 -45 6 0 8 -4 15 -9 15 -12 0 -23 44 -27 115 -3
33 -5 70 -6 82 -3 28 -59 38 -97 18 -18 -10 -21 -14 -9 -15 9 0 25 -3 35 -6
15 -5 15 -4 3 5 -12 9 -10 11 13 11 28 0 37 -14 15 -23 -8 -3 -6 -6 5 -6 9 -1
17 -7 18 -13 9 -112 21 -162 47 -187 13 -13 12 -17 -5 -31 -11 -8 -18 -22 -16
-30 4 -13 3 -13 -6 0 -17 24 -23 4 -12 -37 14 -48 14 -66 1 -58 -5 3 -10 1
-10 -4 0 -6 4 -11 9 -11 5 0 7 -9 4 -19 -5 -19 -33 -34 -85 -47 l-28 -6 -1 58
c0 33 -3 71 -5 87 -5 26 -3 27 41 27 34 0 45 4 45 16 0 10 -5 12 -12 7 -7 -4
-28 -8 -45 -9 -24 0 -33 4 -33 15 0 13 9 15 45 13 28 -3 45 0 45 7 0 7 -20 11
-50 11 l-50 0 0 39 c0 22 -9 60 -20 86 -11 26 -20 48 -20 51 0 2 18 7 40 10
22 4 37 10 34 15 -9 14 -50 10 -64 -6 -16 -19 -31 -19 -24 0 5 12 1 14 -17 11
-36 -7 -36 -7 -14 -16 16 -7 17 -9 3 -9 -9 -1 -22 7 -27 17 -9 15 -10 15 -11
-5 0 -12 7 -23 16 -25 19 -4 45 -66 51 -125 l5 -43 -41 -2 c-23 -1 -48 -2 -57
-2 -12 -1 -16 13 -19 63 -6 88 -15 90 -15 2 0 -46 -4 -70 -10 -66 -5 3 -10 0
-10 -8 0 -11 16 -13 80 -10 65 3 80 1 80 -11 0 -10 -16 -15 -57 -18 -32 -2
-62 -1 -67 3 -10 9 -36 1 -36 -11 0 -5 8 -11 18 -13 16 -4 16 -5 0 -6 -16 -1
-18 -13 -18 -105 l0 -104 -32 -6 c-36 -7 -43 -3 -35 19 4 8 18 15 32 15 14 0
25 5 25 11 0 7 -10 9 -25 5 -28 -7 -30 0 -14 41 6 15 10 89 10 163 0 74 2 143
5 153 10 34 23 16 30 -43 10 -89 17 -65 8 30 -4 45 -10 76 -14 70 -4 -7 -13
-9 -19 -6 -6 4 -11 3 -11 -1 0 -11 -90 -44 -101 -37 -5 3 -9 -6 -9 -20 0 -44
-60 -76 -162 -84 -12 -1 -18 -10 -18 -26 0 -14 -12 -39 -27 -58 -15 -18 -28
-35 -30 -37 -2 -3 -10 2 -18 10 -13 13 -11 22 14 76 17 34 42 72 56 85 37 32
75 119 75 172 0 30 5 46 15 50 15 5 46 -50 80 -139 4 -11 9 -15 11 -9 3 6 -1
24 -7 40 -7 16 -13 31 -14 34 -1 3 -13 30 -27 62 -22 48 -39 89 -43 108 -1 3
-7 16 -14 30 -10 21 -7 40 17 124 28 101 45 125 57 86 8 -25 29 -21 34 6 1 10
25 57 51 104 26 47 58 117 69 155 12 39 30 97 41 130 25 80 32 136 31 260 -1
89 -5 114 -28 172 -31 79 -81 137 -129 153 -24 8 -34 18 -35 33 0 12 -10 42
-22 67 -20 41 -25 45 -62 46 -22 1 -75 10 -118 20 -69 15 -86 16 -148 4 -55
-11 -78 -11 -103 -2 -58 21 -109 15 -151 -18z m-265 -517 c0 -10 -4 -24 -9
-31 -7 -11 -10 -10 -15 3 -10 28 -7 45 9 45 8 0 15 -8 15 -17z m25 -243 c-3
-5 -10 -10 -16 -10 -5 0 -9 5 -9 10 0 6 7 10 16 10 8 0 12 -4 9 -10z m49 4 c9
-3 16 -16 16 -29 0 -26 -34 -39 -75 -29 -30 7 -34 -11 -6 -26 13 -6 22 -7 26
0 9 14 35 0 35 -19 0 -9 -16 -34 -35 -56 -19 -22 -35 -49 -35 -61 0 -12 -6
-27 -14 -33 -11 -9 -15 -7 -20 11 -10 39 -7 103 6 116 10 10 10 14 0 21 -11 7
-11 15 2 46 14 32 19 36 41 31 20 -5 25 -3 25 14 0 21 8 24 34 14z m732 -229
c-3 -9 -11 -13 -16 -10 -8 5 -7 11 1 21 14 18 24 11 15 -11z m-38 -469 c-14
-17 -20 2 -12 36 l8 33 6 -30 c4 -16 3 -34 -2 -39z m-1334 -186 c-5 -34 -3
-50 5 -50 7 0 11 20 11 50 0 73 20 61 21 -12 3 -117 16 -215 31 -224 6 -4 8 4
4 22 -3 16 -7 45 -8 64 l-3 35 45 -4 c25 -2 56 -4 70 -5 19 -1 25 -7 26 -26 0
-14 4 -47 8 -74 l8 -49 -69 8 c-37 4 -75 7 -84 7 -15 -1 -33 65 -43 163 -2 17
-7 30 -12 30 -30 -2 -112 -19 -126 -27 -21 -10 -23 0 -7 55 6 22 13 36 16 33
4 -3 13 0 21 6 11 10 75 43 90 47 1 1 0 -21 -4 -49z m1750 -2 c19 -54 22 -66
30 -153 17 -169 19 -198 9 -192 -6 4 -13 39 -17 79 -14 158 -24 225 -40 262
-18 43 -20 56 -8 56 4 0 16 -24 26 -52z m-214 3 c0 -6 -4 -13 -10 -16 -5 -3
-10 1 -10 9 0 9 5 16 10 16 6 0 10 -4 10 -9z m-35 -22 c-4 -5 1 -12 10 -15 9
-4 12 -10 7 -13 -6 -4 -5 -30 3 -74 14 -76 2 -103 -13 -30 -20 93 -26 157 -13
149 6 -4 9 -12 6 -17z m-1646 -56 c-1 -27 8 -82 20 -123 58 -201 85 -273 89
-244 2 12 -4 39 -13 60 -20 48 -7 63 50 57 l41 -5 12 -76 c6 -41 11 -76 9 -77
-1 -1 -23 -5 -48 -7 l-46 -5 -32 66 c-31 65 -84 226 -97 295 -6 35 2 106 12
106 3 0 4 -21 3 -47z m451 32 c18 -9 30 -24 30 -35 0 -11 -3 -19 -7 -19 -5 1
-24 0 -43 -1 -32 -2 -31 -3 14 -11 47 -7 70 -24 60 -41 -3 -4 -1 -16 5 -25 5
-10 11 -34 12 -53 4 -33 3 -34 -31 -35 -19 -1 -44 -5 -55 -8 -19 -6 -22 -1
-33 76 -7 45 -14 91 -16 102 -2 12 -9 19 -20 17 -9 -2 -16 1 -16 5 0 11 20 40
20 30 0 -4 8 -3 18 2 23 14 28 13 62 -4z m1170 -1 c0 -4 -8 -13 -17 -21 -16
-13 -16 -14 -2 -10 13 4 20 -5 29 -41 7 -26 14 -56 17 -66 5 -17 1 -18 -38
-12 -24 4 -51 8 -59 10 -19 2 -20 7 -19 54 0 30 2 33 9 17 5 -11 9 -17 11 -12
5 20 7 28 8 37 3 21 61 63 61 44z m-1282 -40 c0 -23 -3 -25 -37 -20 -20 3 -51
5 -68 6 -18 0 -33 5 -33 11 0 8 19 10 60 6 47 -4 60 -2 60 9 0 8 4 14 9 14 5
0 9 -12 9 -26z m-188 -9 c0 -10 -10 -15 -27 -16 -38 -1 -76 -8 -82 -16 -3 -3
20 -3 51 1 63 7 61 8 73 -69 4 -22 9 -47 11 -57 4 -13 -5 -17 -56 -20 l-61 -3
-15 50 c-8 28 -17 67 -20 87 l-5 37 48 6 c26 4 53 8 58 10 20 7 25 5 25 -10z
m230 -67 c16 -104 16 -111 4 -115 -8 -3 -14 23 -18 74 -4 43 -10 86 -12 96 -3
9 -1 17 4 17 6 0 15 -33 22 -72z m1130 23 c0 -22 -6 -42 -12 -45 -10 -5 -10
-7 0 -12 14 -7 17 -34 3 -34 -5 0 -11 6 -14 13 -5 15 -24 -94 -26 -154 -1 -23
-4 -25 -43 -23 -23 1 -44 7 -46 13 -2 6 2 11 10 11 7 0 21 27 32 63 11 34 27
69 38 79 13 12 15 18 6 21 -10 3 -9 9 4 23 9 10 17 22 17 27 2 24 14 57 22 57
5 0 9 -18 9 -39z m-60 -5 c0 -36 -10 -55 -26 -49 -10 4 -14 -3 -14 -26 0 -17
-5 -31 -10 -31 -6 0 -9 17 -7 38 2 28 7 36 20 34 13 -2 17 4 17 28 0 16 5 30
10 30 6 0 10 -11 10 -24z m-880 -41 c37 -28 86 -105 66 -105 -6 0 -17 5 -24
12 -6 6 -20 13 -31 15 -22 3 -22 -9 -1 -127 12 -71 15 -92 25 -190 3 -36 8
-82 11 -104 5 -28 3 -37 -6 -34 -7 2 -14 17 -15 34 -6 84 -27 261 -44 354 -10
60 -15 109 -10 115 11 11 12 28 1 21 -4 -2 -8 4 -8 15 0 10 1 19 1 19 1 0 16
-11 35 -25z m-714 -20 c-5 -23 -3 -35 4 -35 6 0 8 -4 5 -10 -11 -18 -23 -10
-30 20 -4 19 -2 36 5 45 19 23 23 18 16 -20z m2038 -15 c3 -19 8 -56 12 -82
l6 -48 -33 -1 c-19 -1 -47 -5 -64 -10 -20 -6 -5 -7 48 -4 59 4 77 2 77 -8 0
-8 -6 -14 -12 -15 -7 0 -32 -4 -55 -8 -30 -5 -48 -3 -60 7 -15 13 -16 11 -9
-16 9 -36 3 -32 54 -39 24 -3 42 -1 42 4 0 6 -11 10 -24 10 -14 0 -28 5 -31
10 -4 6 15 10 48 10 l55 0 -2 -79 c-1 -46 1 -78 7 -74 5 3 7 49 6 102 l-3 96
44 10 c58 13 70 21 70 48 0 14 3 18 10 11 7 -7 8 -19 1 -37 -8 -20 -21 -29
-56 -38 -25 -6 -48 -16 -52 -22 -4 -6 2 -8 18 -3 69 19 67 19 71 -6 2 -12 0
-43 -4 -68 -5 -24 -11 -99 -14 -165 -2 -66 -10 -124 -16 -130 -7 -7 -9 6 -4
45 10 94 10 170 0 167 -5 -1 -8 -10 -7 -20 2 -11 -7 -21 -25 -27 -15 -6 -35
-15 -44 -20 -24 -13 -28 -13 -28 5 0 8 17 19 40 26 22 7 40 16 40 22 0 5 -8 6
-17 2 -54 -22 -53 -23 -54 66 -1 46 -4 71 -6 54 -1 -16 -6 -53 -9 -81 l-5 -51
-57 -10 c-31 -6 -58 -10 -60 -9 -1 2 -5 47 -7 102 -3 54 -8 145 -12 202 -5 96
-4 102 14 102 12 0 19 -8 20 -21 4 -48 37 -119 55 -119 10 0 18 5 18 11 0 14
-20 50 -37 67 -7 7 -13 19 -13 27 0 7 -2 20 -5 27 -4 11 3 14 29 14 32 -1 35
-4 40 -36z m-1232 -29 c14 -35 15 -41 3 -31 -13 11 -45 66 -45 77 0 3 5 3 12
1 6 -2 20 -24 30 -47z m961 38 c18 1 27 -4 27 -14 0 -17 -15 -18 -84 -9 -31 5
-46 11 -46 22 0 12 8 13 38 7 20 -4 49 -6 65 -6z m-301 -39 c-33 -30 -122
-139 -122 -149 0 -6 -7 -11 -15 -11 -25 0 -17 20 36 87 86 109 90 113 105 100
11 -10 10 -15 -4 -27z m55 3 c-3 -3 -11 -2 -17 2 -8 5 -7 11 2 22 12 15 13 14
16 -1 2 -10 1 -20 -1 -23z m303 28 c0 -6 -4 -13 -10 -16 -5 -3 -10 1 -10 9 0
9 5 16 10 16 6 0 10 -4 10 -9z m85 -206 c4 -110 9 -203 12 -208 6 -10 -33 -23
-90 -29 -40 -5 -48 -3 -45 10 4 20 88 38 99 21 8 -13 20 16 14 34 -9 24 -14
390 -6 381 5 -5 12 -99 16 -209z m-1935 159 c0 -8 -4 -12 -10 -9 -5 3 -10 13
-10 21 0 8 5 12 10 9 6 -3 10 -13 10 -21z m1677 4 c-3 -13 -9 -62 -12 -110 -7
-83 -12 -98 -28 -81 -4 4 -26 8 -50 11 -47 4 -52 6 -42 21 8 14 62 14 70 0 13
-21 27 -2 30 41 7 86 17 140 27 140 6 0 8 -10 5 -22z m101 12 l42 0 0 -62 c0
-35 -3 -74 -7 -87 -6 -22 -9 -23 -66 -17 -33 3 -62 8 -64 10 -3 2 -1 41 3 86
6 77 8 81 28 76 11 -3 40 -6 64 -6z m67 -10 c3 -5 1 -10 -4 -10 -6 0 -11 5
-11 10 0 6 2 10 4 10 3 0 8 -4 11 -10z m-301 -26 c-4 -14 -12 -52 -18 -83
l-11 -56 -67 -3 c-63 -3 -68 -1 -68 17 0 11 11 28 25 37 14 9 25 22 25 29 0 8
9 12 23 9 12 -2 17 -2 10 1 -16 8 46 75 70 75 14 0 16 -5 11 -26z m30 -1 c-9
-37 -23 -73 -27 -73 -2 0 0 23 6 50 5 28 14 50 19 50 4 0 5 -12 2 -27z m-1048
4 c1 -1 5 -56 9 -123 l7 -120 -56 0 c-47 1 -56 4 -56 19 0 16 6 17 45 11 29
-4 45 -3 45 4 0 6 -21 12 -47 14 -38 2 -47 7 -48 23 -1 11 -5 43 -9 70 -11 77
-16 73 72 59 17 -3 32 -1 32 4 0 12 -129 31 -133 19 -2 -6 3 -37 10 -71 14
-68 17 -123 6 -112 -9 8 -42 197 -37 207 2 4 156 1 160 -4z m-207 -3 c52 -11
37 -29 -24 -29 -35 0 -55 4 -55 12 0 20 29 27 79 17z m381 -9 c0 -10 -10 -15
-29 -15 -16 0 -43 -3 -60 -6 -24 -5 -31 -3 -31 9 0 17 22 23 83 26 27 1 37 -3
37 -14z m74 6 c3 -4 20 -11 37 -15 47 -9 29 -18 -20 -10 -25 4 -41 12 -41 20
0 16 16 19 24 5z m-204 -17 c0 -9 -5 -14 -12 -12 -18 6 -21 28 -4 28 9 0 16
-7 16 -16z m400 -36 c0 -12 -14 -10 -28 4 -19 19 -14 29 8 16 11 -7 20 -16 20
-20z m1417 24 c8 -5 9 -13 3 -22 -9 -13 -10 -13 -10 0 0 9 -3 11 -8 5 -9 -13
-92 -17 -92 -5 0 5 12 12 28 16 15 3 32 7 37 9 17 6 30 5 42 -3z m-1671 -77
c7 -39 13 -76 13 -82 1 -9 -19 -13 -69 -13 l-70 0 0 70 c0 39 -1 73 -2 77 -2
4 15 9 37 11 22 2 42 6 45 8 2 3 11 3 19 2 10 -2 19 -26 27 -73z m124 59 c20
-5 52 -63 43 -77 -4 -6 0 -8 10 -4 16 6 17 3 33 -55 5 -16 -3 -18 -69 -18
l-73 0 -11 68 c-6 37 -14 76 -19 86 -7 17 -4 18 32 12 21 -4 46 -9 54 -12z
m-826 -54 c31 -22 61 -40 66 -40 6 0 10 -9 10 -20 0 -11 -2 -20 -5 -20 -11 0
-85 50 -85 58 0 4 -14 16 -30 27 -29 19 -39 35 -22 35 5 0 34 -18 66 -40z
m-44 -18 c0 -5 22 -24 50 -43 l49 -34 -5 -70 c-3 -38 -5 -78 -5 -87 0 -25 -11
-22 -53 15 -33 28 -36 36 -30 65 7 37 19 41 34 12 6 -11 17 -20 25 -20 24 0 6
27 -30 44 -40 19 -43 19 -42 4 1 -32 -4 -58 -10 -58 -5 0 -18 8 -31 18 -21 16
-22 21 -11 45 7 16 18 26 26 23 16 -6 18 10 2 20 -8 4 -8 9 0 17 6 6 11 21 11
34 0 13 5 23 10 23 6 0 10 -4 10 -8z m1379 -11 c12 -8 13 -12 1 -26 -12 -14
-15 -14 -28 -1 -8 8 -11 19 -8 25 9 13 16 14 35 2z m559 -186 c-2 -1 -22 -5
-45 -8 l-42 -5 2 92 2 91 35 5 35 5 8 -89 c4 -49 6 -90 5 -91z m-150 169 l52
-7 0 -66 c0 -61 -7 -128 -31 -291 l-10 -66 -80 -3 c-43 -1 -79 1 -79 6 0 15
21 138 26 156 3 9 1 17 -4 17 -5 0 -15 -39 -22 -87 -12 -83 -23 -113 -35 -101
-3 3 1 37 9 76 9 38 17 85 19 104 21 173 32 228 44 228 9 0 12 -8 8 -22 -21
-89 -32 -174 -24 -183 6 -5 9 -5 9 2 0 6 19 13 43 16 23 3 52 9 65 13 16 5 22
2 22 -9 0 -17 -12 -22 -78 -32 -23 -4 -40 -11 -37 -15 3 -5 20 -4 38 1 51 15
76 12 71 -8 -10 -43 -20 -143 -14 -143 9 0 30 150 37 264 4 65 3 87 -6 82 -6
-4 -11 -32 -11 -64 l0 -57 -55 -13 c-30 -7 -59 -11 -63 -8 -7 4 14 166 21 172
1 1 23 -1 48 -5 25 -4 54 -4 65 -1 12 5 -6 10 -48 14 -49 6 -68 12 -68 22 0
16 12 17 88 8z m-248 -20 c0 -13 -72 -22 -127 -16 -38 5 -44 19 -10 24 58 8
137 4 137 -8z m-191 -3 c14 -9 7 -51 -10 -51 -5 0 -9 -8 -9 -17 0 -10 -10 -37
-22 -60 -18 -34 -27 -42 -43 -37 -19 5 -19 5 -1 -10 26 -21 14 -51 -14 -36
-11 6 -20 14 -20 18 -1 11 94 202 100 202 3 0 11 -4 19 -9z m284 -5 c21 0 21
11 1 -118 l-17 -108 -58 0 c-46 0 -59 3 -59 15 0 15 23 19 83 15 15 -1 27 3
27 9 0 7 -21 11 -51 11 -43 0 -50 3 -46 18 3 9 11 42 18 72 18 76 36 102 63
93 11 -3 29 -7 39 -7z m-648 -16 c3 -5 1 -10 -4 -10 -6 0 -11 5 -11 10 0 6 2
10 4 10 3 0 8 -4 11 -10z m386 -27 c-8 -15 -10 -15 -11 -2 0 17 10 32 18 25 2
-3 -1 -13 -7 -23z m-917 -55 c11 -103 18 -138 25 -133 7 3 -1 95 -10 135 -3
12 8 16 49 18 37 2 52 -1 53 -10 1 -26 8 -94 14 -129 l6 -35 -61 4 -61 4 7
-26 c3 -15 2 -26 -4 -26 -9 0 -16 42 -38 218 -3 23 -1 42 4 42 5 0 12 -28 16
-62z m306 50 c0 -5 0 -11 0 -15 0 -3 -27 -5 -60 -4 -38 1 -60 -2 -60 -8 0 -7
24 -11 59 -11 33 0 62 -3 64 -7 3 -5 8 -42 12 -83 l7 -75 -68 2 c-37 2 -68 4
-70 5 -1 2 -5 39 -9 83 -3 44 -8 88 -11 97 -3 10 2 18 13 20 32 7 123 3 123
-4z m200 -5 c0 -15 -11 -19 -69 -21 -54 -3 -70 0 -74 12 -5 12 6 16 56 19 34
2 68 4 75 5 6 1 12 -6 12 -15z m-540 -8 c0 -12 -13 -15 -55 -15 -42 0 -55 3
-55 15 0 12 13 15 55 15 42 0 55 -3 55 -15z m-250 -6 c0 -6 7 -26 16 -45 20
-41 41 -43 83 -9 22 19 46 27 90 32 55 5 61 4 62 -13 0 -11 2 -26 3 -34 2 -8
6 -39 10 -67 6 -50 6 -53 -16 -54 -13 0 -39 -1 -58 -2 l-35 -2 -3 78 c-2 42
-6 77 -10 77 -4 0 -15 -13 -25 -29 -9 -16 -28 -32 -42 -35 -14 -4 -25 -11 -25
-16 0 -15 12 -12 45 10 17 11 32 20 35 20 3 0 5 -32 6 -72 l1 -71 -23 26 c-24
28 -34 20 -34 -25 0 -12 -5 -18 -12 -16 -7 3 -37 13 -65 23 -48 17 -63 32 -48
47 3 3 22 -3 43 -13 37 -19 77 -26 68 -11 -3 5 -24 15 -48 22 -24 7 -48 17
-54 22 -10 7 -6 51 12 146 4 22 24 32 24 11z m889 -49 c4 0 17 -18 30 -40 12
-22 17 -40 12 -40 -6 0 -11 -4 -11 -9 0 -5 8 -7 19 -4 11 3 21 -2 24 -11 5
-13 -1 -16 -32 -16 -22 0 -46 -3 -54 -6 -16 -6 -20 11 -32 131 l-6 60 22 -32
c11 -18 24 -33 28 -33z m-95 -2 c3 -18 7 -54 9 -80 l4 -47 -64 -7 c-36 -3 -68
-3 -72 2 -5 5 -11 44 -15 87 l-6 77 70 0 69 0 5 -32z m-970 -36 c19 -17 46
-36 60 -42 17 -6 26 -17 26 -31 l0 -21 -36 22 c-40 26 -52 20 -56 -28 -1 -19
-6 -36 -10 -38 -5 -3 -6 -9 -3 -14 9 -14 -15 -64 -25 -54 -7 7 -3 31 10 70 11
32 20 69 20 81 0 16 4 21 16 16 14 -5 14 -3 3 15 -7 11 -16 19 -20 16 -4 -2
-24 5 -44 17 -25 15 -33 24 -24 30 18 10 44 -2 83 -39z m2116 8 c0 -14 -30
-27 -77 -33 -37 -4 -43 -3 -43 13 0 15 9 20 43 23 23 2 50 4 60 5 9 1 17 -2
17 -8z m-2168 -17 c21 -13 28 -24 24 -38 -2 -11 -12 -48 -21 -82 l-17 -62 -34
17 c-39 18 -40 22 -19 62 8 16 12 37 8 46 -5 14 -3 16 12 11 14 -6 15 -5 7 6
-10 12 -6 57 5 57 3 0 18 -8 35 -17z m2158 -17 c0 -2 -7 -21 -16 -42 -10 -24
-19 -87 -24 -169 -4 -80 -8 -105 -8 -64 -1 36 -5 68 -8 71 -7 8 -44 -3 -44
-13 0 -5 7 -6 16 -2 14 5 15 -7 12 -102 l-3 -109 -50 -13 c-63 -16 -65 -16
-65 1 0 9 16 17 43 21 49 9 59 13 52 25 -3 5 -24 2 -47 -6 -23 -8 -42 -13 -44
-12 -1 2 2 40 8 84 8 63 14 81 26 80 8 0 17 5 20 13 3 10 -2 11 -18 6 -16 -5
-21 -4 -18 6 3 8 9 14 14 14 8 1 83 34 93 41 2 2 5 14 6 26 2 13 6 31 10 41 4
9 3 17 -3 17 -10 0 -22 -25 -21 -43 0 -9 -53 -58 -58 -53 -2 2 1 34 7 72 5 38
10 75 10 82 0 7 13 12 33 12 17 0 39 5 47 10 15 10 30 13 30 6z m-135 -110
c-4 -47 -11 -86 -15 -86 -8 0 -3 141 6 169 11 35 15 -5 9 -83z m-31 2 c-4 -46
-8 -85 -10 -87 -2 -2 -16 -5 -32 -6 -15 -1 -38 -6 -50 -9 -19 -6 -22 -4 -22
20 0 15 5 56 11 90 11 63 11 63 47 67 21 2 43 4 50 5 10 2 11 -17 6 -80z
m-1824 52 c0 -11 -4 -20 -10 -20 -5 0 -10 9 -10 20 0 11 5 20 10 20 6 0 10 -9
10 -20z m-63 -5 c25 -13 29 -20 25 -43 -2 -15 -8 -31 -12 -37 -5 -5 -11 -32
-15 -58 l-8 -49 -29 32 c-38 43 -35 76 7 72 l30 -4 -23 20 c-14 12 -22 31 -22
51 0 35 5 37 47 16z m1563 -20 c-1 -11 -6 -49 -13 -85 l-12 -65 -68 -3 c-62
-3 -68 -1 -65 15 2 14 16 19 58 24 l55 6 -51 1 -52 2 15 53 c8 28 16 57 17 62
2 6 29 10 60 10 49 0 56 -2 56 -20z m-445 4 c10 -15 8 -16 -67 -22 -55 -5 -68
-3 -68 8 0 20 124 33 135 14z m-1071 -82 c-8 -34 -18 -74 -23 -88 -10 -29 -4
-43 19 -46 29 -3 124 -41 128 -51 7 -22 -17 -19 -83 9 -38 16 -75 29 -82 29
-16 0 -17 -3 8 99 27 116 29 122 39 116 4 -3 2 -33 -6 -68z m350 65 c10 -17
-30 -37 -74 -37 -32 0 -45 5 -45 15 0 9 14 15 44 17 24 2 47 5 49 8 8 8 20 6
26 -3z m154 -9 c3 -9 -12 -13 -52 -13 -44 0 -56 3 -56 16 0 12 10 14 52 12 30
-2 53 -8 56 -15z m190 0 c3 -10 -16 -13 -72 -13 -62 0 -76 3 -76 15 0 13 12
15 72 13 46 -2 73 -7 76 -15z m40 -1 c2 -7 -3 -12 -12 -12 -9 0 -16 7 -16 16
0 17 22 14 28 -4z m36 9 c3 -5 -1 -11 -9 -15 -9 -3 -15 0 -15 9 0 16 16 20 24
6z m-669 -44 c28 -8 50 -18 50 -23 -3 -60 -19 -154 -27 -154 -6 0 -37 10 -69
23 -63 24 -67 30 -49 96 5 20 12 49 15 64 4 21 9 26 18 19 7 -6 35 -17 62 -25z
m993 -19 c7 -35 7 -57 0 -65 -7 -9 -2 -11 19 -10 23 2 29 -3 31 -22 2 -13 0
-27 -5 -32 -12 -12 -43 -1 -43 15 0 10 -14 9 -60 -2 -33 -8 -62 -13 -64 -11
-2 2 -6 25 -8 52 -4 36 -2 47 8 47 8 0 14 5 14 10 0 6 -8 10 -17 8 -13 -2 -19
5 -21 24 -3 25 0 27 40 31 103 9 94 12 106 -45z m-790 10 c5 -7 14 -48 19 -91
l9 -78 -50 3 -51 3 -3 78 c-3 73 -1 78 20 87 32 12 44 12 56 -2z m-503 -20
c14 -6 25 -20 25 -30 0 -11 -3 -18 -7 -16 -51 24 -63 33 -63 45 0 16 11 17 45
1z m917 -74 c4 -38 10 -89 13 -114 8 -61 15 -517 8 -536 -3 -7 -12 -14 -19
-14 -12 0 -13 10 -8 48 3 26 10 52 15 58 8 10 7 58 -5 254 -12 196 -17 246
-26 285 -14 57 -13 98 3 93 7 -3 15 -33 19 -74z m-907 -1 c-2 -8 -12 -45 -21
-83 -10 -39 -22 -70 -29 -70 -20 0 -35 24 -34 54 1 17 3 23 6 14 2 -10 8 -18
13 -18 15 0 18 26 4 51 -17 32 -17 40 1 33 19 -8 19 6 0 32 -20 30 -9 36 31
16 21 -10 33 -21 29 -29z m55 37 c0 -6 -4 -18 -9 -28 -5 -9 -21 -60 -37 -112
-26 -88 -44 -130 -44 -103 0 18 48 191 56 205 5 7 7 21 6 31 -2 10 3 17 12 17
9 0 16 -5 16 -10z m2226 -17 c-3 -16 -3 -22 0 -15 3 6 9 12 13 12 5 0 1 -29
-7 -65 -9 -36 -21 -64 -26 -61 -6 2 -18 -2 -26 -9 -8 -7 -34 -15 -57 -19 -46
-6 -55 4 -28 34 8 9 18 44 21 78 7 59 8 61 38 65 77 10 79 9 72 -20z m-2177
-15 c18 -19 27 -36 22 -43 -10 -12 1 -47 14 -45 10 2 8 -41 -2 -85 -2 -11 -6
-29 -8 -40 -2 -11 -7 -30 -11 -42 -4 -16 -2 -23 7 -23 29 0 139 -54 139 -68 0
-8 -6 -12 -12 -10 -7 3 -38 13 -68 24 -30 10 -57 22 -60 25 -3 4 -32 21 -65
39 -70 37 -79 45 -71 58 8 13 95 -29 96 -45 0 -24 18 -13 23 15 3 15 8 38 11
52 14 59 15 91 1 40 -9 -30 -18 -61 -20 -68 -5 -14 -95 25 -95 42 0 16 25 84
33 92 4 4 7 14 7 23 0 32 16 44 39 32 11 -7 21 -8 21 -3 0 5 -11 14 -25 20
-16 7 -23 17 -19 27 8 20 8 20 43 -17z m1911 9 c0 -8 -22 -17 -55 -23 -48 -9
-55 -8 -53 6 2 8 18 18 38 21 58 10 70 10 70 -4z m-152 -24 c-4 -25 -138 -33
-138 -9 0 11 15 16 58 19 31 2 63 4 70 5 8 1 12 -5 10 -15z m28 -5 c-3 -13
-11 -59 -17 -103 -11 -71 -29 -124 -29 -85 -1 39 35 210 43 210 5 0 7 -10 3
-22z m-216 -3 c0 -16 -32 -25 -92 -25 -42 0 -48 3 -48 20 0 19 6 21 70 19 48
-1 70 -6 70 -14z m40 0 c0 -8 -7 -15 -15 -15 -16 0 -20 12 -8 23 11 12 23 8
23 -8z m286 -47 c-3 -29 -8 -114 -11 -188 -3 -87 -9 -136 -16 -139 -8 -2 -9
20 -5 80 16 190 16 194 6 179 -5 -8 -10 -23 -10 -34 0 -14 -6 -17 -25 -14 -14
3 -25 1 -25 -3 0 -5 -7 -9 -15 -9 -8 0 -15 -5 -15 -10 0 -11 45 -9 56 3 17 17
23 4 19 -40 -3 -27 -7 -88 -9 -138 -8 -152 -19 -245 -27 -245 -11 0 -11 15 1
158 5 64 11 144 13 177 l3 61 -28 -4 c-16 -2 -31 -9 -35 -15 -4 -6 4 -8 21 -5
30 6 30 6 20 -90 -8 -69 -8 -69 -119 -76 -66 -5 -65 -4 -65 -17 0 -5 5 -7 10
-4 6 3 10 0 10 -8 0 -14 -23 -29 -72 -47 -22 -7 -28 -7 -28 4 0 8 17 20 38 27
20 7 32 14 25 16 -7 2 -21 -1 -33 -7 -21 -11 -21 -10 -14 37 3 26 9 53 13 58
6 11 7 17 9 53 2 18 8 22 40 23 20 0 46 5 57 10 14 6 4 8 -38 6 -47 -3 -57 -1
-55 11 2 8 16 16 33 17 17 2 52 6 78 9 36 4 48 3 44 -7 -2 -6 -10 -12 -17 -12
-7 0 -15 -6 -18 -14 -3 -10 0 -12 12 -8 10 4 21 7 26 7 4 0 16 50 26 110 l18
110 41 11 c22 5 45 12 50 14 6 2 12 4 14 4 2 1 0 -23 -3 -51z m-711 12 c3 -5
-6 -12 -20 -15 -14 -3 -37 -7 -52 -10 -16 -3 -36 -8 -45 -11 -11 -3 -18 0 -18
9 0 23 122 48 135 27z m411 -67 c-10 -109 -19 -148 -36 -149 -8 -1 -46 -2 -85
-3 -64 -1 -68 -2 -45 -14 14 -7 27 -10 30 -5 3 4 23 7 43 6 42 -1 41 3 15
-125 l-11 -53 -75 0 c-72 0 -74 1 -68 23 4 12 14 61 23 109 l16 86 66 4 c36 2
72 0 79 -5 6 -5 13 -6 13 -1 2 12 6 54 13 127 3 32 8 63 12 68 13 22 16 4 10
-68z m154 74 c0 -8 -31 -161 -33 -162 -1 -1 -28 -5 -60 -9 l-59 -6 6 27 c3 16
8 55 11 88 l6 61 65 2 c35 1 64 0 64 -1z m-185 -29 c-7 -28 -12 -72 -14 -115
l-1 -33 -76 0 c-68 0 -75 2 -70 17 4 10 9 42 12 73 3 30 7 60 8 65 2 6 36 11
75 13 71 3 72 3 66 -20z m731 -10 c-3 -13 -5 -27 -5 -32 -1 -4 -8 -6 -16 -2
-8 3 -15 1 -15 -3 0 -5 -19 -12 -42 -16 -55 -8 -150 -36 -163 -47 -15 -14 18
-9 49 7 l28 15 -5 -33 c-3 -17 -9 -58 -13 -89 -5 -50 -9 -58 -28 -59 -11 0
-30 -4 -41 -9 -15 -7 -9 -9 25 -8 25 1 63 10 85 20 22 10 29 16 16 14 -22 -5
-23 -3 -17 37 4 23 9 60 13 82 5 37 9 42 45 53 46 15 54 12 40 -15 -6 -10 -9
-37 -9 -60 1 -22 -1 -39 -5 -36 -5 2 -8 -3 -8 -12 0 -8 -7 -18 -16 -22 -12 -4
-13 -8 -3 -14 10 -6 10 -11 -2 -25 -9 -11 -10 -18 -3 -21 8 -3 8 -15 0 -44 -8
-30 -7 -45 2 -60 9 -14 10 -25 2 -39 -16 -30 -23 -24 -15 11 5 22 4 29 -4 25
-6 -4 -11 -18 -11 -31 0 -27 -3 -30 -48 -40 l-33 -7 5 39 c2 21 8 58 12 82 6
39 5 43 -12 38 -48 -14 -114 -18 -114 -7 0 6 6 13 14 16 8 3 11 15 8 30 -2 13
0 24 4 24 5 0 8 22 6 48 -2 26 0 63 5 81 8 30 14 35 63 49 30 8 63 15 73 15 9
1 17 4 17 8 0 4 23 10 50 14 40 6 50 11 50 26 0 10 4 19 10 19 5 0 8 -10 6
-22z m-1137 -134 c-17 -77 -37 -166 -43 -198 l-12 -60 -54 -12 c-30 -7 -56
-11 -58 -10 -1 2 3 27 9 57 23 117 22 114 59 117 19 2 40 8 45 14 7 7 -3 8
-32 3 -29 -4 -43 -3 -43 4 0 6 3 11 8 12 48 5 92 19 92 30 0 6 -8 8 -17 5 -10
-3 -29 -8 -43 -11 l-25 -6 3 83 c2 46 5 84 6 85 3 3 130 29 134 27 1 -1 -12
-64 -29 -140z m-1007 93 c22 -7 39 -16 39 -22 -2 -39 -26 -155 -32 -155 -18 0
-65 25 -82 44 -10 12 -16 15 -12 9 3 -8 0 -13 -8 -13 -20 0 -25 9 -20 31 4 14
11 18 22 14 32 -13 63 -16 56 -5 -3 5 -14 10 -23 10 -37 0 -44 15 -37 74 l7
57 25 -17 c14 -9 43 -21 65 -27z m261 3 c-1 -19 -2 -78 -3 -131 l-2 -95 -41 2
c-23 1 -48 2 -54 3 -7 1 -13 8 -13 16 0 12 9 15 38 13 20 -2 38 1 39 7 2 5
-15 8 -37 6 l-40 -3 -1 49 c-2 48 -2 78 0 141 l1 33 58 -3 57 -3 -2 -35z m368
-38 c10 -79 5 -85 -66 -69 -22 5 -49 10 -60 11 -14 1 -20 9 -22 33 l-3 32 75
0 c41 0 75 -3 76 -7z m-931 -16 c0 -22 -19 -30 -35 -16 -22 18 -18 30 10 30
15 0 25 -6 25 -14z m2310 2 c-1 -30 -28 -149 -35 -156 -4 -4 -5 7 -2 23 3 17
9 56 12 88 4 31 11 57 16 57 5 0 9 -6 9 -12z m-2329 -57 c-5 -9 -14 -46 -21
-83 -7 -38 -16 -68 -20 -68 -13 0 -31 28 -22 34 5 3 7 17 4 31 -2 14 0 25 7
25 6 0 10 8 9 18 -1 9 0 29 0 43 2 22 6 26 27 21 19 -3 23 -8 16 -21z m2169
-53 c-6 -40 -14 -76 -18 -80 -4 -3 -24 -11 -44 -16 l-38 -10 0 82 0 83 53 10
c28 5 54 8 55 7 2 -1 -1 -35 -8 -76z m-1255 29 c32 -3 41 -8 43 -26 3 -22 1
-22 -72 -19 -42 2 -76 6 -76 11 0 4 0 18 0 31 0 23 2 24 33 16 17 -5 50 -11
72 -13z m830 -39 c-12 -39 -46 -241 -41 -246 3 -3 6 0 6 6 0 11 67 48 75 41 2
-3 0 -22 -5 -44 -5 -22 -10 -57 -10 -77 0 -35 -2 -38 -29 -38 -16 0 -45 -7
-65 -15 -32 -14 -36 -14 -36 0 0 8 6 15 14 15 14 0 30 29 21 38 -3 3 -5 -1 -5
-8 0 -7 -3 -11 -6 -8 -3 3 4 46 14 94 35 158 42 195 42 225 0 19 5 29 15 29 8
0 13 -6 10 -12z m-1477 -55 c39 -13 51 -21 47 -32 -3 -9 -16 -55 -28 -103 -17
-66 -26 -87 -37 -84 -100 25 -110 29 -110 47 0 23 -1 23 36 5 37 -18 92 -31
79 -18 -5 5 -32 17 -58 27 -42 15 -48 20 -43 39 3 11 11 50 17 84 9 52 14 63
28 58 9 -3 40 -13 69 -23z m492 12 c0 -12 -14 -15 -65 -15 -51 0 -65 3 -65 15
0 12 14 15 65 15 51 0 65 -3 65 -15z m-790 -68 c0 -21 -11 -27 -31 -16 -27 14
-23 29 6 29 14 0 25 -6 25 -13z m-23 -35 c22 -14 -1 -283 -33 -395 -7 -22 -55
-20 -62 2 -3 10 1 12 16 9 15 -4 19 -2 15 8 -3 8 -10 14 -17 14 -7 0 -6 4 3 9
9 6 10 11 3 15 -12 7 -4 37 12 48 8 5 7 11 -2 20 -23 23 -14 41 18 36 37 -6
40 9 4 18 -20 5 -24 11 -20 28 3 11 6 33 6 49 0 15 9 36 20 47 24 24 25 27 3
33 -15 4 -15 6 4 12 20 6 20 9 8 22 -27 27 -10 45 22 25z m1733 -41 c-1 -19
-23 -26 -87 -29 -57 -2 -73 0 -73 11 0 7 2 16 4 18 7 7 156 7 156 0z m-1552
-23 c-6 -18 -28 -21 -28 -4 0 9 7 16 16 16 9 0 14 -5 12 -12z m2246 -43 c-4
-8 -8 -15 -10 -15 -2 0 -4 7 -4 15 0 8 4 15 10 15 5 0 7 -7 4 -15z m-5 -57
c-1 -31 -1 -31 -8 -8 -5 14 -6 28 -4 33 9 15 13 6 12 -25z m-401 -55 c-5 -27
-158 -52 -158 -27 0 18 10 22 85 33 33 5 64 9 68 10 5 0 7 -7 5 -16z m142 -33
c0 -21 -3 -58 -6 -84 -5 -36 -11 -46 -25 -46 -17 0 -19 9 -19 79 0 55 4 81 13
84 29 9 37 3 37 -33z m247 -22 c-3 -8 -6 -5 -6 6 -1 11 2 17 5 13 3 -3 4 -12
1 -19z m-264 -138 c-6 -23 -33 -27 -33 -6 0 13 13 23 32 25 3 1 4 -8 1 -19z"/>
<path d="M938 1673 c7 -3 16 -2 19 1 4 3 -2 6 -13 5 -11 0 -14 -3 -6 -6z"/>
<path d="M1088 1753 c7 -3 16 -2 19 1 4 3 -2 6 -13 5 -11 0 -14 -3 -6 -6z"/>
<path d="M2271 1724 c0 -11 3 -14 6 -6 3 7 2 16 -1 19 -3 4 -6 -2 -5 -13z"/>
<path d="M760 1648 c0 -4 4 -8 9 -8 6 0 12 4 15 8 3 5 -1 9 -9 9 -8 0 -15 -4
-15 -9z"/>
<path d="M797 1633 c-7 -11 10 -40 18 -31 4 4 3 14 -3 24 -5 9 -12 12 -15 7z"/>
<path d="M1230 1602 c0 -12 19 -26 26 -19 2 2 -2 10 -11 17 -9 8 -15 8 -15 2z"/>
<path d="M2525 1610 c3 -5 8 -10 11 -10 2 0 4 5 4 10 0 6 -5 10 -11 10 -5 0
-7 -4 -4 -10z"/>
<path d="M2470 1510 c0 -6 7 -10 15 -10 8 0 15 2 15 4 0 2 -7 6 -15 10 -8 3
-15 1 -15 -4z"/>
<path d="M2708 1413 c-19 -5 -25 -33 -8 -33 6 0 10 6 10 13 0 8 4 7 10 -3 8
-12 10 -11 10 8 0 12 -1 21 -2 21 -2 -1 -11 -3 -20 -6z"/>
<path d="M2660 1370 c-20 -12 -10 -19 14 -10 11 3 15 9 10 13 -6 3 -16 2 -24
-3z"/>
<path d="M2710 1344 c-11 -27 -13 -51 -5 -42 8 8 25 68 19 68 -2 0 -9 -12 -14
-26z"/>
<path d="M2660 1300 c0 -5 4 -10 9 -10 6 0 13 5 16 10 3 6 -1 10 -9 10 -9 0
-16 -4 -16 -10z"/>
<path d="M2500 1280 c0 -5 5 -10 10 -10 6 0 10 5 10 10 0 6 -4 10 -10 10 -5 0
-10 -4 -10 -10z"/>
<path d="M1915 1429 c-11 -16 -1 -19 13 -3 7 8 8 14 3 14 -5 0 -13 -5 -16 -11z"/>
<path d="M970 1400 c0 -5 7 -7 15 -4 8 4 15 8 15 10 0 2 -7 4 -15 4 -8 0 -15
-4 -15 -10z"/>
<path d="M1161 1464 c0 -11 3 -14 6 -6 3 7 2 16 -1 19 -3 4 -6 -2 -5 -13z"/>
<path d="M1160 1426 c7 -7 13 -7 20 0 6 6 3 10 -10 10 -13 0 -16 -4 -10 -10z"/>
<path d="M1168 1383 c7 -3 16 -2 19 1 4 3 -2 6 -13 5 -11 0 -14 -3 -6 -6z"/>
<path d="M1358 1413 c7 -3 16 -2 19 1 4 3 -2 6 -13 5 -11 0 -14 -3 -6 -6z"/>
<path d="M496 1352 c-7 -12 19 -35 34 -30 7 2 3 11 -8 21 -11 10 -23 14 -26 9z"/>
<path d="M526 1235 c4 -8 11 -15 16 -15 6 0 5 6 -2 15 -7 8 -14 15 -16 15 -2
0 -1 -7 2 -15z"/>
<path d="M2376 1338 c-16 -61 -22 -98 -15 -98 9 0 26 55 27 88 1 24 -7 30 -12
10z"/>
<path d="M2245 1240 c-3 -5 -1 -10 4 -10 6 0 11 5 11 10 0 6 -2 10 -4 10 -3 0
-8 -4 -11 -10z"/>
<path d="M2200 1059 c0 -5 5 -7 10 -4 6 3 10 8 10 11 0 2 -4 4 -10 4 -5 0 -10
-5 -10 -11z"/>
<path d="M2203 1023 c9 -2 23 -2 30 0 6 3 -1 5 -18 5 -16 0 -22 -2 -12 -5z"/>
<path d="M2190 990 c0 -5 7 -10 16 -10 8 0 12 5 9 10 -3 6 -10 10 -16 10 -5 0
-9 -4 -9 -10z"/>
<path d="M2054 1292 c-26 -79 -28 -90 -11 -67 20 28 47 114 38 119 -4 3 -16
-21 -27 -52z"/>
<path d="M980 1261 c0 -5 3 -17 6 -26 5 -12 9 -14 14 -4 5 7 6 18 3 26 -6 15
-23 18 -23 4z"/>
<path d="M993 1178 c1 -17 8 -33 15 -36 8 -2 11 7 10 32 -2 21 -8 36 -15 36
-8 0 -12 -12 -10 -32z"/>
<path d="M1131 1226 c10 -10 59 -14 59 -5 0 5 -14 9 -32 9 -17 0 -29 -2 -27
-4z"/>
<path d="M1160 1171 c0 -6 9 -11 20 -11 11 0 20 -4 20 -10 0 -5 10 -10 23 -9
15 0 17 2 7 6 -8 3 -17 9 -20 13 -9 13 -50 22 -50 11z"/>
<path d="M660 1181 c0 -5 5 -13 10 -16 6 -3 10 -2 10 4 0 5 -4 13 -10 16 -5 3
-10 2 -10 -4z"/>
<path d="M1550 1200 c0 -5 5 -10 11 -10 5 0 7 5 4 10 -3 6 -8 10 -11 10 -2 0
-4 -4 -4 -10z"/>
<path d="M400 1176 c0 -2 7 -7 16 -10 8 -3 12 -2 9 4 -6 10 -25 14 -25 6z"/>
<path d="M387 1094 c6 -15 23 -19 23 -5 0 5 -7 11 -14 14 -10 4 -13 1 -9 -9z"/>
<path d="M2500 1140 c-13 -8 -12 -10 3 -10 9 0 17 5 17 10 0 12 -1 12 -20 0z"/>
<path d="M2426 901 c-4 -7 -5 -15 -2 -18 9 -9 19 4 14 18 -4 11 -6 11 -12 0z"/>
<path d="M510 1090 c0 -6 7 -10 15 -10 8 0 15 2 15 4 0 2 -7 6 -15 10 -8 3
-15 1 -15 -4z"/>
<path d="M490 1011 c0 -6 4 -13 10 -16 6 -3 7 1 4 9 -7 18 -14 21 -14 7z"/>
<path d="M1995 1100 c-3 -5 1 -10 9 -10 9 0 16 5 16 10 0 6 -4 10 -9 10 -6 0
-13 -4 -16 -10z"/>
<path d="M1981 1062 c-13 -25 -14 -32 -2 -32 9 0 23 41 16 48 -2 2 -8 -5 -14
-16z"/>
<path d="M2026 1040 c-13 -4 -16 -9 -8 -14 7 -4 19 -3 28 2 21 12 5 22 -20 12z"/>
<path d="M610 1020 c0 -12 68 -52 82 -48 6 2 -9 16 -35 30 -26 15 -47 23 -47
18z"/>
<path d="M600 991 c0 -13 67 -64 79 -59 5 1 -11 18 -35 36 -24 18 -44 28 -44
23z"/>
<path d="M1588 1013 c7 -3 16 -2 19 1 4 3 -2 6 -13 5 -11 0 -14 -3 -6 -6z"/>
<path d="M1612 992 c-12 -2 -20 -8 -17 -13 9 -13 41 -11 54 4 12 15 7 16 -37
9z"/>
<path d="M1560 976 c0 -8 5 -18 10 -21 6 -3 10 1 10 9 0 8 -4 18 -10 21 -5 3
-10 -1 -10 -9z"/>
<path d="M840 930 c-8 -5 -10 -10 -5 -10 6 0 17 5 25 10 8 5 11 10 5 10 -5 0
-17 -5 -25 -10z"/>
<path d="M2625 940 c-3 -5 -1 -10 4 -10 6 0 11 5 11 10 0 6 -2 10 -4 10 -3 0
-8 -4 -11 -10z"/>
<path d="M2648 905 c-3 -14 -1 -25 3 -25 5 0 9 11 9 25 0 14 -2 25 -4 25 -2 0
-6 -11 -8 -25z"/>
<path d="M2635 860 c-3 -5 -1 -10 4 -10 6 0 11 5 11 10 0 6 -2 10 -4 10 -3 0
-8 -4 -11 -10z"/>
<path d="M440 871 c0 -5 7 -12 16 -15 14 -5 15 -4 4 9 -14 17 -20 19 -20 6z"/>
<path d="M420 800 c0 -5 9 -10 19 -10 11 0 23 5 26 10 4 6 -5 10 -19 10 -14 0
-26 -4 -26 -10z"/>
<path d="M2190 623 c-17 -51 -25 -58 -65 -54 -22 1 -35 -2 -35 -9 0 -8 10 -11
29 -7 15 3 33 1 40 -6 16 -16 26 -1 44 61 17 59 5 72 -13 15z"/>
<path d="M2231 644 c0 -11 3 -14 6 -6 3 7 2 16 -1 19 -3 4 -6 -2 -5 -13z"/>
<path d="M2150 620 c-8 -6 -25 -10 -38 -10 -13 0 -20 -4 -17 -10 9 -15 51 -12
65 5 16 19 10 27 -10 15z"/>
<path d="M2220 600 c0 -5 5 -10 10 -10 6 0 10 5 10 10 0 6 -4 10 -10 10 -5 0
-10 -4 -10 -10z"/>
<path d="M1987 613 c-4 -3 -7 -11 -7 -17 0 -6 5 -5 12 2 6 6 9 14 7 17 -3 3
-9 2 -12 -2z"/>
<path d="M1940 582 c-14 -2 -29 -8 -35 -13 -9 -9 54 -1 64 7 8 7 -4 10 -29 6z"/>
<path d="M1976 554 c-11 -8 -16 -14 -10 -14 13 0 39 18 34 24 -3 2 -14 -2 -24
-10z"/>
<path d="M2120 850 c0 -5 9 -10 20 -10 11 0 20 5 20 10 0 6 -9 10 -20 10 -11
0 -20 -4 -20 -10z"/>
<path d="M2160 810 c-12 -8 -12 -10 5 -10 11 0 27 5 35 10 12 8 12 10 -5 10
-11 0 -27 -5 -35 -10z"/>
<path d="M2150 773 c-14 -3 -29 -9 -35 -15 -7 -8 -4 -9 8 -4 10 3 30 6 43 6
13 0 24 5 24 10 0 6 -3 9 -7 9 -5 -1 -19 -4 -33 -6z"/>
<path d="M1967 848 c6 -11 51 -10 57 0 3 5 -10 8 -29 8 -18 -1 -31 -4 -28 -8z"/>
<path d="M1930 827 c0 -7 20 -13 51 -15 32 -2 49 1 45 7 -4 6 -13 8 -21 5 -8
-4 -28 -1 -45 4 -22 8 -30 8 -30 -1z"/>
<path d="M1920 780 c0 -5 5 -10 10 -10 6 0 10 5 10 10 0 6 -4 10 -10 10 -5 0
-10 -4 -10 -10z"/>
<path d="M1955 779 c-11 -17 -2 -18 30 -4 l30 13 -27 1 c-15 1 -30 -4 -33 -10z"/>
<path d="M2529 692 c-9 -34 -9 -46 1 -55 10 -10 12 -6 8 16 -3 15 -1 27 3 27
5 0 9 6 9 14 0 7 9 20 21 27 20 14 20 14 -5 14 -21 0 -27 -7 -37 -43z"/>
<path d="M2675 690 c3 -5 8 -10 11 -10 2 0 4 5 4 10 0 6 -5 10 -11 10 -5 0 -7
-4 -4 -10z"/>
<path d="M2660 580 c-11 -7 -12 -12 -4 -17 7 -5 14 -17 17 -28 3 -11 5 -3 4
18 -1 20 -1 37 -2 37 0 0 -7 -5 -15 -10z"/>
<path d="M2620 560 c0 -5 5 -10 10 -10 6 0 10 5 10 10 0 6 -4 10 -10 10 -5 0
-10 -4 -10 -10z"/>
<path d="M2635 499 c-4 -6 -5 -12 -2 -15 2 -3 7 2 10 11 7 17 1 20 -8 4z"/>
<path d="M1620 820 c0 -5 -8 -10 -19 -10 -10 0 -24 -7 -31 -15 -9 -10 -9 -15
-1 -15 6 0 11 5 11 10 0 6 10 10 23 10 12 0 31 7 41 15 19 15 19 15 -2 15 -12
0 -22 -4 -22 -10z"/>
<path d="M1605 770 c-3 -5 1 -10 9 -10 9 0 16 5 16 10 0 6 -4 10 -9 10 -6 0
-13 -4 -16 -10z"/>
<path d="M1596 725 c-3 -8 -12 -12 -21 -9 -8 3 -15 1 -15 -5 0 -17 25 -13 51
9 19 15 20 19 8 20 -9 0 -19 -7 -23 -15z"/>
<path d="M1534 581 c3 -5 15 -7 26 -4 28 7 25 13 -6 13 -14 0 -23 -4 -20 -9z"/>
<path d="M1530 540 c-8 -5 -12 -11 -9 -14 2 -3 11 -1 19 4 8 5 12 11 9 14 -2
3 -11 1 -19 -4z"/>
<path d="M1565 540 c3 -5 8 -10 11 -10 2 0 4 5 4 10 0 6 -5 10 -11 10 -5 0 -7
-4 -4 -10z"/>
<path d="M604 761 c21 -11 43 -18 48 -15 15 10 -4 21 -47 28 l-40 7 39 -20z"/>
<path d="M801 791 c2 -31 3 -32 6 -8 4 24 8 27 44 27 25 0 38 4 34 10 -4 6
-24 10 -46 8 -38 -2 -39 -3 -38 -37z"/>
<path d="M868 783 c7 -3 16 -2 19 1 4 3 -2 6 -13 5 -11 0 -14 -3 -6 -6z"/>
<path d="M800 730 c0 -5 5 -10 11 -10 5 0 7 5 4 10 -3 6 -8 10 -11 10 -2 0 -4
-4 -4 -10z"/>
<path d="M850 720 c0 -5 5 -10 10 -10 6 0 10 5 10 10 0 6 -4 10 -10 10 -5 0
-10 -4 -10 -10z"/>
<path d="M838 668 c9 -9 15 -9 24 0 9 9 7 12 -12 12 -19 0 -21 -3 -12 -12z"/>
<path d="M1160 753 c14 -3 29 -9 35 -14 13 -13 65 -11 65 2 0 5 -4 7 -10 4 -5
-3 -10 -3 -10 2 0 4 -24 8 -53 9 -28 1 -41 -1 -27 -3z"/>
<path d="M2441 604 c0 -11 3 -14 6 -6 3 7 2 16 -1 19 -3 4 -6 -2 -5 -13z"/>
<path d="M2005 370 c-4 -12 -5 -24 -2 -27 3 -2 8 5 12 17 4 12 5 24 2 27 -3 2
-8 -5 -12 -17z"/>
<path d="M530 516 c0 -2 9 -6 20 -9 11 -3 18 -1 14 4 -5 9 -34 13 -34 5z"/>
<path d="M490 482 c0 -5 7 -13 16 -16 10 -4 14 -1 12 6 -5 15 -28 23 -28 10z"/>
<path d="M245 390 c3 -5 8 -10 11 -10 2 0 4 5 4 10 0 6 -5 10 -11 10 -5 0 -7
-4 -4 -10z"/>
<path d="M1740 3450 c0 -5 7 -10 16 -10 8 0 12 5 9 10 -3 6 -10 10 -16 10 -5
0 -9 -4 -9 -10z"/>
<path d="M1700 3418 c0 -11 28 -10 35 1 3 6 -4 9 -15 8 -11 -1 -20 -5 -20 -9z"/>
<path d="M1780 3410 c0 -5 5 -10 10 -10 6 0 10 5 10 10 0 6 -4 10 -10 10 -5 0
-10 -4 -10 -10z"/>
<path d="M1839 3413 c-1 -5 -1 -11 0 -15 0 -4 -11 -11 -25 -14 -17 -4 -22 -10
-15 -17 6 -6 15 -5 25 6 9 9 25 19 36 22 11 3 20 11 20 16 0 11 -39 12 -41 2z"/>
<path d="M1913 3383 c-25 -25 -20 -29 14 -10 12 7 19 17 15 22 -4 6 -16 1 -29
-12z"/>
<path d="M1980 3406 c0 -2 7 -6 15 -10 8 -3 15 -1 15 4 0 6 -7 10 -15 10 -8 0
-15 -2 -15 -4z"/>
<path d="M2078 3394 c-8 -7 28 -44 42 -44 6 0 3 11 -7 25 -19 25 -26 29 -35
19z"/>
<path d="M1640 3371 c0 -17 18 -21 24 -6 3 9 0 15 -9 15 -8 0 -15 -4 -15 -9z"/>
<path d="M1610 3364 c0 -5 7 -18 15 -28 8 -11 15 -16 15 -10 0 5 -7 18 -15 28
-8 11 -15 16 -15 10z"/>
<path d="M1730 3360 c0 -5 5 -10 11 -10 5 0 7 5 4 10 -3 6 -8 10 -11 10 -2 0
-4 -4 -4 -10z"/>
<path d="M1945 3361 c-3 -5 -1 -12 5 -16 5 -3 10 1 10 9 0 18 -6 21 -15 7z"/>
<path d="M2010 3350 c-13 -8 -12 -10 3 -10 9 0 17 5 17 10 0 12 -1 12 -20 0z"/>
<path d="M1692 3343 c9 -2 19 -14 21 -26 4 -18 5 -17 6 6 1 22 -3 27 -21 26
-16 -1 -18 -3 -6 -6z"/>
<path d="M1895 3340 c-3 -5 -2 -10 4 -10 5 0 13 5 16 10 3 6 2 10 -4 10 -5 0
-13 -4 -16 -10z"/>
<path d="M2045 3340 c-3 -5 -2 -10 4 -10 5 0 13 5 16 10 3 6 2 10 -4 10 -5 0
-13 -4 -16 -10z"/>
<path d="M1750 3330 c-12 -8 -11 -10 8 -10 12 0 22 5 22 10 0 13 -11 13 -30 0z"/>
<path d="M1806 3325 c-9 -26 -7 -32 5 -12 6 10 9 21 6 23 -2 3 -7 -2 -11 -11z"/>
<path d="M2110 3330 c0 -5 5 -10 11 -10 5 0 7 5 4 10 -3 6 -8 10 -11 10 -2 0
-4 -4 -4 -10z"/>
<path d="M2080 3315 c7 -9 15 -13 17 -11 7 7 -7 26 -19 26 -6 0 -6 -6 2 -15z"/>
<path d="M1940 3310 c-9 -6 -10 -10 -3 -10 6 0 15 5 18 10 8 12 4 12 -15 0z"/>
<path d="M2163 3313 c-16 -6 -17 -33 -3 -33 11 0 26 28 19 34 -2 2 -10 1 -16
-1z"/>
<path d="M1600 3290 c0 -5 5 -10 11 -10 5 0 7 5 4 10 -3 6 -8 10 -11 10 -2 0
-4 -4 -4 -10z"/>
<path d="M1670 3290 c0 -5 5 -10 11 -10 5 0 7 5 4 10 -3 6 -8 10 -11 10 -2 0
-4 -4 -4 -10z"/>
<path d="M1740 3289 c0 -5 5 -7 10 -4 6 3 10 8 10 11 0 2 -4 4 -10 4 -5 0 -10
-5 -10 -11z"/>
<path d="M1700 3275 c0 -8 2 -15 4 -15 2 0 6 7 10 15 3 8 1 15 -4 15 -6 0 -10
-7 -10 -15z"/>
<path d="M1951 3281 c-9 -6 -6 -10 11 -14 35 -10 58 -8 58 4 0 6 -6 9 -12 6
-7 -2 -20 -1 -29 4 -8 4 -21 4 -28 0z"/>
<path d="M1825 3270 c-3 -5 -2 -10 4 -10 5 0 13 5 16 10 3 6 2 10 -4 10 -5 0
-13 -4 -16 -10z"/>
<path d="M2110 3240 c0 -16 5 -30 10 -30 6 0 10 14 10 30 0 17 -4 30 -10 30
-5 0 -10 -13 -10 -30z"/>
<path d="M1874 3235 c11 -8 24 -15 30 -15 5 0 1 7 -10 15 -10 8 -23 14 -29 14
-5 0 -1 -6 9 -14z"/>
<path d="M2236 3211 c-3 -22 -9 -47 -13 -57 -4 -12 -3 -15 5 -10 7 4 12 18 12
32 0 13 5 24 10 24 6 0 10 11 10 25 0 39 -17 29 -24 -14z"/>
<path d="M1998 3233 c7 -3 16 -2 19 1 4 3 -2 6 -13 5 -11 0 -14 -3 -6 -6z"/>
<path d="M2181 3231 c-8 -6 -9 -11 -3 -15 6 -3 14 -1 17 5 9 14 2 20 -14 10z"/>
<path d="M2035 3220 c-3 -5 1 -10 9 -10 9 0 16 5 16 10 0 6 -4 10 -9 10 -6 0
-13 -4 -16 -10z"/>
<path d="M1736 3211 c-4 -7 -5 -15 -2 -18 9 -9 19 4 14 18 -4 11 -6 11 -12 0z"/>
<path d="M1965 3200 c-3 -5 1 -10 9 -10 9 0 16 5 16 10 0 6 -4 10 -9 10 -6 0
-13 -4 -16 -10z"/>
<path d="M2190 3180 c0 -19 3 -21 12 -12 9 9 9 15 0 24 -9 9 -12 7 -12 -12z"/>
<path d="M1865 3160 c3 -5 11 -10 16 -10 6 0 7 5 4 10 -3 6 -11 10 -16 10 -6
0 -7 -4 -4 -10z"/>
<path d="M2135 3150 c3 -5 8 -10 11 -10 2 0 4 5 4 10 0 6 -5 10 -11 10 -5 0
-7 -4 -4 -10z"/>
<path d="M2005 3140 c3 -5 8 -10 11 -10 2 0 4 5 4 10 0 6 -5 10 -11 10 -5 0
-7 -4 -4 -10z"/>
<path d="M2280 3140 c0 -5 5 -10 10 -10 6 0 10 5 10 10 0 6 -4 10 -10 10 -5 0
-10 -4 -10 -10z"/>
<path d="M1960 3130 c0 -5 5 -10 10 -10 6 0 10 5 10 10 0 6 -4 10 -10 10 -5 0
-10 -4 -10 -10z"/>
<path d="M1890 3116 c0 -9 40 -13 46 -5 3 5 -6 9 -20 9 -14 0 -26 -2 -26 -4z"/>
<path d="M2075 3110 c3 -5 8 -10 11 -10 2 0 4 5 4 10 0 6 -5 10 -11 10 -5 0
-7 -4 -4 -10z"/>
<path d="M2300 3109 c0 -5 5 -7 10 -4 6 3 10 8 10 11 0 2 -4 4 -10 4 -5 0 -10
-5 -10 -11z"/>
<path d="M2350 3110 c0 -5 5 -10 11 -10 5 0 7 5 4 10 -3 6 -8 10 -11 10 -2 0
-4 -4 -4 -10z"/>
<path d="M1678 3103 c7 -3 16 -2 19 1 4 3 -2 6 -13 5 -11 0 -14 -3 -6 -6z"/>
<path d="M2240 3099 c0 -5 5 -7 10 -4 6 3 10 8 10 11 0 2 -4 4 -10 4 -5 0 -10
-5 -10 -11z"/>
<path d="M1948 3093 c7 -3 16 -2 19 1 4 3 -2 6 -13 5 -11 0 -14 -3 -6 -6z"/>
<path d="M2142 3093 c-6 -2 -10 -9 -6 -14 8 -14 21 -11 21 6 0 8 -1 15 -1 14
-1 0 -7 -3 -14 -6z"/>
<path d="M2180 3096 c0 -2 8 -10 18 -17 15 -13 16 -12 3 4 -13 16 -21 21 -21
13z"/>
<path d="M1590 3079 c0 -5 5 -9 10 -9 6 0 10 -5 10 -11 0 -5 -4 -7 -10 -4 -5
3 -10 -1 -10 -11 0 -14 2 -14 16 -3 13 10 17 10 25 -2 5 -8 9 -10 9 -5 0 5 7
3 15 -4 11 -9 18 -10 28 -1 8 6 17 8 20 4 4 -3 7 -2 7 4 0 6 -15 14 -32 17
-18 3 -45 13 -60 20 -16 8 -28 11 -28 5z"/>
<path d="M1858 3083 c7 -3 16 -2 19 1 4 3 -2 6 -13 5 -11 0 -14 -3 -6 -6z"/>
<path d="M1510 3070 c0 -5 7 -10 16 -10 8 0 12 5 9 10 -3 6 -10 10 -16 10 -5
0 -9 -4 -9 -10z"/>
<path d="M1926 3065 c-3 -8 -1 -15 4 -15 6 0 10 7 10 15 0 8 -2 15 -4 15 -2 0
-6 -7 -10 -15z"/>
<path d="M2015 3070 c-16 -7 -17 -9 -3 -9 9 -1 20 4 23 9 7 11 7 11 -20 0z"/>
<path d="M2095 3070 c3 -5 8 -10 11 -10 2 0 4 5 4 10 0 6 -5 10 -11 10 -5 0
-7 -4 -4 -10z"/>
<path d="M1736 3053 c-11 -11 -6 -23 9 -23 8 0 15 -9 15 -20 0 -26 16 -26 23
0 5 19 -34 56 -47 43z"/>
<path d="M2220 3050 c0 -6 7 -10 15 -10 8 0 15 2 15 4 0 2 -7 6 -15 10 -8 3
-15 1 -15 -4z"/>
<path d="M2275 3051 c-3 -5 4 -13 16 -16 28 -9 33 -2 9 13 -11 6 -21 8 -25 3z"/>
<path d="M2033 3044 c4 -4 17 -12 29 -19 15 -7 22 -18 20 -31 -3 -15 -1 -17 9
-6 18 17 39 15 39 -3 0 -9 9 -15 25 -15 34 0 31 6 -12 26 -21 10 -50 26 -65
36 -24 17 -59 26 -45 12z"/>
<path d="M2140 3040 c20 -13 33 -13 25 0 -3 6 -14 10 -23 10 -15 0 -15 -2 -2
-10z"/>
<path d="M1800 3005 c0 -8 7 -15 16 -15 8 0 12 -4 9 -10 -3 -5 -2 -10 4 -10 6
0 14 -12 17 -26 4 -16 12 -23 20 -20 8 3 14 1 14 -4 0 -6 -6 -10 -12 -11 -29
-1 30 -18 67 -18 l40 -1 -40 25 c-22 13 -48 25 -58 25 -12 0 -17 6 -15 18 2
10 -8 26 -26 40 -35 26 -36 26 -36 7z"/>
<path d="M2220 2995 c-7 -9 -8 -15 -2 -15 5 0 12 7 16 15 3 8 4 15 2 15 -2 0
-9 -7 -16 -15z"/>
<path d="M2014 2985 c11 -8 22 -12 25 -9 6 6 -19 24 -34 24 -5 -1 -1 -7 9 -15z"/>
<path d="M2308 2993 c7 -3 16 -2 19 1 4 3 -2 6 -13 5 -11 0 -14 -3 -6 -6z"/>
<path d="M2208 2925 c30 -14 59 -25 65 -24 17 0 -85 48 -103 49 -8 0 9 -11 38
-25z"/>
<path d="M2080 2930 c0 -5 5 -10 10 -10 6 0 10 5 10 10 0 6 -4 10 -10 10 -5 0
-10 -4 -10 -10z"/>
<path d="M2365 2930 c4 -6 11 -8 16 -5 14 9 11 15 -7 15 -8 0 -12 -5 -9 -10z"/>
<path d="M2201 2887 c2 -1 12 -9 22 -16 15 -12 17 -12 11 3 -3 9 -13 16 -22
16 -8 0 -13 -1 -11 -3z"/>
<path d="M1535 2870 c3 -5 8 -10 11 -10 2 0 4 5 4 10 0 6 -5 10 -11 10 -5 0
-7 -4 -4 -10z"/>
<path d="M1974 2872 c-6 -4 -4 -13 8 -24 10 -10 18 -14 18 -9 0 6 -5 13 -10
16 -6 4 -8 11 -5 16 7 11 4 11 -11 1z"/>
<path d="M2160 2850 c-9 -6 -10 -10 -3 -10 6 0 15 5 18 10 8 12 4 12 -15 0z"/>
<path d="M2197 2835 c3 -8 9 -12 14 -9 12 7 11 11 -5 17 -10 4 -13 1 -9 -8z"/>
<path d="M1966 2825 c4 -11 13 -38 21 -60 8 -23 28 -50 48 -65 19 -14 38 -34
44 -45 5 -11 10 -15 10 -8 1 7 7 11 14 9 6 -1 9 -1 5 1 -5 3 -8 11 -8 19 0 8
-3 13 -8 12 -11 -4 -82 69 -82 84 0 7 -12 27 -26 43 -18 21 -23 24 -18 10z"/>
<path d="M621 2814 c0 -11 3 -14 6 -6 3 7 2 16 -1 19 -3 4 -6 -2 -5 -13z"/>
<path d="M1890 2821 c0 -5 7 -12 16 -15 8 -3 13 -10 9 -15 -3 -5 -1 -12 4 -15
18 -12 19 22 0 38 -22 18 -29 20 -29 7z"/>
<path d="M1630 2779 c0 -5 -9 -9 -20 -9 -28 0 -25 -20 3 -21 12 -1 49 -3 82
-4 33 -2 80 -8 105 -13 24 -6 46 -9 48 -7 2 2 13 -5 25 -16 24 -22 47 -25 47
-6 0 23 -57 57 -122 71 -72 17 -168 20 -168 5z"/>
<path d="M1562 2761 c2 -7 -3 -16 -11 -19 -8 -3 -11 0 -7 7 4 6 2 11 -3 11 -6
0 -11 -7 -11 -15 0 -8 7 -15 15 -15 8 0 15 -5 15 -12 0 -6 3 -8 7 -5 3 4 12 2
18 -3 9 -7 17 -5 26 7 10 11 10 14 1 9 -11 -7 -44 16 -42 29 1 4 -1 10 -5 13
-4 4 -5 1 -3 -7z"/>
<path d="M1712 2708 c-19 -19 -1 -46 35 -53 19 -3 38 -4 41 -1 3 3 -4 6 -16 6
-14 0 -22 6 -22 16 0 13 6 15 27 9 15 -3 30 -10 33 -14 7 -9 82 -31 106 -31
11 1 -1 10 -26 21 -25 11 -53 25 -63 30 -30 16 -105 27 -115 17z"/>
<path d="M1651 2701 c-13 -3 -31 -18 -40 -31 l-16 -25 29 23 c16 12 35 22 42
22 8 0 14 5 14 10 0 6 -1 10 -2 9 -2 -1 -14 -4 -27 -8z"/>
<path d="M1675 2670 c-3 -5 -2 -10 4 -10 5 0 13 5 16 10 3 6 2 10 -4 10 -5 0
-13 -4 -16 -10z"/>
<path d="M1570 2635 c0 -8 5 -15 10 -15 6 0 10 7 10 15 0 8 -4 15 -10 15 -5 0
-10 -7 -10 -15z"/>
<path d="M1650 2641 c0 -16 85 -41 133 -39 26 1 47 6 47 9 0 4 10 10 23 13 12
3 -6 3 -40 1 -39 -3 -77 1 -104 10 -48 17 -59 18 -59 6z"/>
<path d="M2100 2630 c-8 -5 -12 -11 -9 -14 2 -3 11 -1 19 4 8 5 12 11 9 14 -2
3 -11 1 -19 -4z"/>
<path d="M1616 2613 c-6 -14 -5 -15 5 -6 7 7 10 15 7 18 -3 3 -9 -2 -12 -12z"/>
<path d="M1545 2599 c-4 -6 -5 -12 -2 -15 2 -3 7 2 10 11 7 17 1 20 -8 4z"/>
<path d="M1930 2561 c0 -5 5 -13 10 -16 6 -3 10 -2 10 4 0 5 -4 13 -10 16 -5
3 -10 2 -10 -4z"/>
<path d="M1508 2513 c7 -3 16 -2 19 1 4 3 -2 6 -13 5 -11 0 -14 -3 -6 -6z"/>
<path d="M1885 2510 c-3 -5 -1 -10 4 -10 6 0 11 5 11 10 0 6 -2 10 -4 10 -3 0
-8 -4 -11 -10z"/>
<path d="M1825 2500 c3 -5 8 -10 11 -10 2 0 4 5 4 10 0 6 -5 10 -11 10 -5 0
-7 -4 -4 -10z"/>
<path d="M1785 2470 c-3 -5 -1 -10 4 -10 6 0 11 5 11 10 0 6 -2 10 -4 10 -3 0
-8 -4 -11 -10z"/>
<path d="M2250 2471 c-18 -5 -21 -9 -11 -15 8 -5 19 -2 29 8 9 9 14 16 12 15
-3 -1 -16 -4 -30 -8z"/>
<path d="M2201 2444 c0 -11 3 -14 6 -6 3 7 2 16 -1 19 -3 4 -6 -2 -5 -13z"/>
<path d="M2140 2440 c0 -5 7 -10 16 -10 8 0 12 5 9 10 -3 6 -10 10 -16 10 -5
0 -9 -4 -9 -10z"/>
<path d="M1650 2432 c0 -4 9 -13 20 -20 22 -13 27 -3 8 16 -14 14 -28 16 -28
4z"/>
<path d="M1795 2410 c4 -6 11 -8 16 -5 14 9 11 15 -7 15 -8 0 -12 -5 -9 -10z"/>
<path d="M1990 2400 c0 -5 5 -10 10 -10 6 0 10 5 10 10 0 6 -4 10 -10 10 -5 0
-10 -4 -10 -10z"/>
<path d="M1467 2373 c6 -14 11 -15 91 -17 30 0 56 2 58 6 2 4 22 5 44 3 22 -2
42 1 45 6 7 11 10 10 -131 12 -86 2 -110 -1 -107 -10z"/>
<path d="M1880 2370 c0 -5 5 -10 10 -10 6 0 10 5 10 10 0 6 -4 10 -10 10 -5 0
-10 -4 -10 -10z"/>
<path d="M1925 2359 c-4 -6 -5 -12 -2 -15 2 -3 7 2 10 11 7 17 1 20 -8 4z"/>
<path d="M1961 2325 c-2 -39 -15 -59 -35 -52 -9 4 -16 3 -16 -2 0 -5 9 -11 20
-14 11 -3 20 -2 20 2 0 4 10 18 21 30 13 14 18 26 12 30 -6 3 -13 13 -16 21
-3 8 -6 2 -6 -15z"/>
<path d="M1635 2330 c-3 -5 1 -10 9 -10 9 0 16 5 16 10 0 6 -4 10 -9 10 -6 0
-13 -4 -16 -10z"/>
<path d="M1850 2310 c0 -5 10 -10 23 -10 18 0 19 2 7 10 -19 13 -30 13 -30 0z"/>
<path d="M2020 2301 c0 -12 5 -21 10 -21 6 0 10 6 10 14 0 8 -4 18 -10 21 -5
3 -10 -3 -10 -14z"/>
<path d="M1820 2289 c0 -5 7 -9 15 -9 9 0 15 -10 15 -26 0 -14 4 -23 10 -19 6
3 10 17 10 29 0 17 -7 25 -25 28 -14 3 -25 1 -25 -3z"/>
<path d="M1445 2280 c3 -5 10 -10 16 -10 5 0 9 5 9 10 0 6 -7 10 -16 10 -8 0
-12 -4 -9 -10z"/>
<path d="M1560 2280 c-12 -8 -9 -10 13 -10 15 0 27 5 27 10 0 13 -20 13 -40 0z"/>
<path d="M1505 2270 c-3 -5 1 -10 9 -10 9 0 16 5 16 10 0 6 -4 10 -9 10 -6 0
-13 -4 -16 -10z"/>
<path d="M2070 2259 c0 -5 5 -7 10 -4 6 3 10 8 10 11 0 2 -4 4 -10 4 -5 0 -10
-5 -10 -11z"/>
<path d="M1605 2240 c3 -5 16 -10 28 -10 18 0 19 2 7 10 -20 13 -43 13 -35 0z"/>
<path d="M1807 2243 c-2 -4 -1 -17 3 -27 6 -19 7 -19 14 -1 7 19 -8 44 -17 28z"/>
<path d="M1443 2225 c0 -10 6 -14 14 -10 8 3 24 5 36 6 20 1 20 2 -3 9 -38 12
-47 11 -47 -5z"/>
<path d="M1890 2226 c0 -8 -10 -22 -22 -30 -12 -9 -18 -16 -13 -16 12 1 35 19
54 43 12 15 11 17 -3 17 -9 0 -16 -6 -16 -14z"/>
<path d="M2047 2226 c-20 -15 -23 -37 -4 -33 11 2 31 36 25 43 -2 1 -11 -3
-21 -10z"/>
<path d="M1520 2209 c0 -16 3 -19 13 -12 6 5 24 8 39 7 20 -2 25 1 21 12 -3 8
-19 14 -39 14 -28 0 -34 -4 -34 -21z"/>
<path d="M1935 2180 c3 -5 8 -10 11 -10 2 0 4 5 4 10 0 6 -5 10 -11 10 -5 0
-7 -4 -4 -10z"/>
<path d="M1998 2170 c-1 -5 -13 -11 -25 -13 -28 -4 -42 -17 -19 -17 18 0 76
27 76 35 0 9 -28 5 -32 -5z"/>
<path d="M1816 2144 c-9 -24 -2 -26 12 -4 7 11 8 20 3 20 -5 0 -12 -7 -15 -16z"/>
<path d="M1915 2140 c-4 -6 -13 -9 -19 -7 -21 8 -36 -7 -25 -23 8 -11 12 -12
15 -3 3 7 12 9 21 6 10 -4 14 -2 10 4 -4 6 -1 13 5 16 7 2 10 7 7 11 -4 4 -10
2 -14 -4z"/>
<path d="M1545 2120 c-5 -8 -11 -24 -12 -35 -3 -18 -2 -18 12 3 9 12 15 28 13
34 -3 8 -7 8 -13 -2z"/>
<path d="M1715 2120 c-3 -5 1 -10 9 -10 9 0 16 5 16 10 0 6 -4 10 -9 10 -6 0
-13 -4 -16 -10z"/>
<path d="M1660 2109 c0 -5 5 -7 10 -4 6 3 10 2 10 -3 0 -5 -10 -13 -22 -17
-15 -4 -18 -8 -10 -12 7 -3 19 1 27 7 12 10 17 8 24 -11 9 -22 10 -23 10 -3 1
11 -7 28 -17 37 -21 20 -32 22 -32 6z"/>
<path d="M1765 2102 c4 -10 0 -13 -13 -10 -13 4 -18 -1 -20 -16 0 -12 2 -16 6
-9 7 10 40 20 80 22 24 2 3 19 -28 23 -24 4 -30 1 -25 -10z"/>
<path d="M1575 2091 c-3 -5 -1 -12 5 -16 5 -3 10 -2 10 4 0 5 10 12 23 14 19
4 19 4 -5 6 -15 0 -29 -3 -33 -8z"/>
<path d="M1910 2081 c0 -6 9 -9 20 -8 11 1 20 5 20 9 0 4 -9 8 -20 8 -11 0
-20 -4 -20 -9z"/>
<path d="M2201 2064 c13 -14 32 -34 41 -44 9 -10 25 -16 35 -14 13 4 26 -7 46
-38 15 -23 27 -48 27 -55 0 -7 4 -13 8 -13 17 0 20 13 9 37 -7 16 -8 27 -1 31
15 10 25 42 14 42 -6 0 -10 -4 -10 -10 0 -5 -5 -10 -11 -10 -5 0 -8 4 -4 9 3
5 -18 13 -47 18 -38 7 -52 13 -50 24 2 7 1 11 -3 8 -3 -4 -17 4 -30 17 -33 32
-53 31 -24 -2z"/>
<path d="M1825 2060 c3 -5 10 -10 16 -10 5 0 9 5 9 10 0 6 -7 10 -16 10 -8 0
-12 -4 -9 -10z"/>
<path d="M1186 1967 c-19 -64 -19 -67 -7 -67 9 0 34 110 27 117 -2 3 -11 -20
-20 -50z"/>
<path d="M2398 1979 c-2 -22 0 -43 4 -45 4 -3 8 4 8 15 0 11 4 22 9 25 4 3 8
-20 8 -50 0 -33 5 -59 12 -63 6 -4 17 -35 24 -70 7 -34 17 -61 22 -61 6 1 9
10 8 21 -2 10 2 19 7 19 6 0 10 -4 10 -10 0 -5 7 -10 16 -10 11 0 7 9 -15 29
-29 27 -34 39 -34 84 0 9 -7 17 -17 17 -13 0 -17 10 -17 50 0 41 3 49 16 45 9
-2 30 -1 46 4 l30 9 -36 1 c-20 1 -42 8 -49 16 -25 30 -48 18 -52 -26z m52 15
c0 -2 -7 -4 -15 -4 -8 0 -15 4 -15 10 0 5 7 7 15 4 8 -4 15 -8 15 -10z"/>
<path d="M1775 2000 c-18 -8 -17 -9 8 -9 15 -1 27 4 27 9 0 12 -8 12 -35 0z"/>
<path d="M1888 1993 c7 -3 16 -2 19 1 4 3 -2 6 -13 5 -11 0 -14 -3 -6 -6z"/>
<path d="M2170 1990 c0 -3 7 -27 16 -55 32 -99 34 -118 18 -137 -15 -15 -14
-16 5 -11 12 3 24 9 26 14 6 9 -43 169 -57 184 -4 5 -8 7 -8 5z"/>
<path d="M2281 1983 c-2 -21 32 -82 48 -88 13 -5 13 -3 -1 12 -9 10 -23 34
-31 53 -9 19 -16 30 -16 23z"/>
<path d="M2610 1980 c-14 -4 -35 -5 -47 -3 -29 7 -30 -13 -1 -20 24 -7 108 13
108 25 0 10 -26 9 -60 -2z"/>
<path d="M1858 1973 c7 -3 16 -2 19 1 4 3 -2 6 -13 5 -11 0 -14 -3 -6 -6z"/>
<path d="M2500 1960 c0 -5 7 -7 15 -4 8 4 15 8 15 10 0 2 -7 4 -15 4 -8 0 -15
-4 -15 -10z"/>
<path d="M1720 1951 c0 -6 4 -12 8 -15 5 -3 9 1 9 9 0 8 -4 15 -9 15 -4 0 -8
-4 -8 -9z"/>
<path d="M2766 1945 c-4 -11 -3 -21 3 -23 5 -2 8 -9 6 -15 -3 -7 11 -19 31
-29 30 -14 35 -14 30 -1 -3 8 -6 16 -6 19 0 2 -6 1 -12 -1 -8 -3 -19 10 -28
32 -14 33 -17 36 -24 18z"/>
<path d="M1470 1915 c0 -8 2 -15 4 -15 2 0 6 7 10 15 3 8 1 15 -4 15 -6 0 -10
-7 -10 -15z"/>
<path d="M1385 1910 c-3 -5 -1 -10 4 -10 6 0 11 5 11 10 0 6 -2 10 -4 10 -3 0
-8 -4 -11 -10z"/>
<path d="M2395 1910 c3 -5 8 -10 11 -10 2 0 4 5 4 10 0 6 -5 10 -11 10 -5 0
-7 -4 -4 -10z"/>
<path d="M2668 1903 c6 -2 18 -2 25 0 6 3 1 5 -13 5 -14 0 -19 -2 -12 -5z"/>
<path d="M1128 1883 c7 -3 16 -2 19 1 4 3 -2 6 -13 5 -11 0 -14 -3 -6 -6z"/>
<path d="M2846 1875 c5 -13 61 -35 92 -35 15 0 15 -4 1 -54 -10 -35 -13 -37
-37 -31 -15 3 -35 6 -44 6 -11 0 -18 8 -18 19 0 10 -5 22 -11 25 -6 4 -8 13
-5 20 3 8 -6 21 -19 29 -28 19 -47 21 -25 3 9 -7 25 -34 37 -61 18 -42 25 -49
52 -51 17 -2 38 -8 46 -15 17 -14 17 -14 35 58 7 26 16 42 26 42 8 0 12 -4 9
-10 -3 -5 -1 -10 4 -10 19 0 12 29 -11 44 -13 7 -43 14 -68 15 -25 0 -46 6
-48 11 -2 6 -8 10 -13 10 -4 0 -6 -7 -3 -15z"/>
<path d="M1163 1855 c0 -14 3 -25 8 -25 5 0 9 11 9 25 0 14 -4 25 -9 25 -5 0
-8 -11 -8 -25z"/>
<path d="M2596 1871 c-4 -5 3 -7 14 -4 23 6 26 13 6 13 -8 0 -17 -4 -20 -9z"/>
<path d="M2660 1876 c0 -2 7 -6 15 -10 8 -3 15 -1 15 4 0 6 -7 10 -15 10 -8 0
-15 -2 -15 -4z"/>
<path d="M1420 1851 c0 -6 4 -12 8 -15 5 -3 9 1 9 9 0 8 -4 15 -9 15 -4 0 -8
-4 -8 -9z"/>
<path d="M1530 1844 c0 -8 5 -12 10 -9 6 4 8 11 5 16 -9 14 -15 11 -15 -7z"/>
<path d="M2173 1848 c7 -19 -43 -68 -69 -68 -16 0 -19 -16 -4 -25 6 -3 10 -2
10 3 0 5 13 15 29 22 16 6 37 20 46 30 16 18 16 20 -1 37 -16 16 -17 16 -11 1z"/>
<path d="M1128 1843 c7 -3 16 -2 19 1 4 3 -2 6 -13 5 -11 0 -14 -3 -6 -6z"/>
<path d="M2621 1846 c12 -10 79 -16 79 -6 0 5 -19 10 -42 10 -23 0 -39 -2 -37
-4z"/>
<path d="M1980 1815 c0 -8 2 -15 4 -15 2 0 6 7 10 15 3 8 1 15 -4 15 -6 0 -10
-7 -10 -15z"/>
<path d="M1415 1800 c3 -5 10 -10 16 -10 5 0 9 5 9 10 0 6 -7 10 -16 10 -8 0
-12 -4 -9 -10z"/>
<path d="M1950 1795 c-8 -9 -8 -15 -2 -15 12 0 26 19 19 26 -2 2 -10 -2 -17
-11z"/>
<path d="M1500 1765 c0 -8 7 -15 16 -15 14 0 14 3 4 15 -7 8 -14 15 -16 15 -2
0 -4 -7 -4 -15z"/>
<path d="M2730 1746 c0 -9 5 -16 10 -16 6 0 10 4 10 9 0 6 -4 13 -10 16 -5 3
-10 -1 -10 -9z"/>
<path d="M1205 1740 c3 -5 13 -10 21 -10 8 0 12 5 9 10 -3 6 -13 10 -21 10 -8
0 -12 -4 -9 -10z"/>
<path d="M1260 1741 c0 -11 71 -71 83 -71 5 0 -9 18 -32 40 -42 41 -51 47 -51
31z"/>
<path d="M1615 1740 c3 -5 8 -10 11 -10 2 0 4 5 4 10 0 6 -5 10 -11 10 -5 0
-7 -4 -4 -10z"/>
<path d="M2640 1742 c0 -5 9 -12 21 -15 13 -3 19 -1 16 6 -5 15 -37 22 -37 9z"/>
<path d="M1640 1730 c0 -5 5 -10 11 -10 5 0 7 5 4 10 -3 6 -8 10 -11 10 -2 0
-4 -4 -4 -10z"/>
<path d="M1756 1722 c-3 -4 4 -9 15 -9 23 -2 25 3 4 10 -8 4 -16 3 -19 -1z"/>
<path d="M1925 1710 c-3 -5 -1 -10 4 -10 6 0 11 5 11 10 0 6 -2 10 -4 10 -3 0
-8 -4 -11 -10z"/>
<path d="M1895 1700 c-3 -5 -1 -10 4 -10 6 0 11 5 11 10 0 6 -2 10 -4 10 -3 0
-8 -4 -11 -10z"/>
<path d="M2730 1695 c0 -8 5 -15 10 -15 6 0 10 7 10 15 0 8 -4 15 -10 15 -5 0
-10 -7 -10 -15z"/>
<path d="M610 1680 c-8 -5 -12 -12 -9 -15 4 -3 12 1 19 10 14 17 11 19 -10 5z"/>
<path d="M2865 1636 c2 -32 7 -61 10 -64 9 -9 4 82 -6 103 -6 14 -7 2 -4 -39z"/>
<path d="M596 1634 c-27 -27 -34 -58 -16 -69 6 -3 10 4 10 16 0 13 12 36 27
51 34 36 15 37 -21 2z"/>
<path d="M2948 1628 c-21 -46 -33 -96 -19 -83 11 11 43 107 37 112 -2 2 -10
-11 -18 -29z"/>
<path d="M2916 1625 c-4 -14 -11 -23 -16 -20 -6 3 -7 -1 -4 -9 10 -25 21 -19
28 16 8 38 1 49 -8 13z"/>
<path d="M2690 1624 c0 -8 5 -12 10 -9 6 3 10 10 10 16 0 5 -4 9 -10 9 -5 0
-10 -7 -10 -16z"/>
<path d="M620 1610 c0 -5 5 -10 11 -10 5 0 7 5 4 10 -3 6 -8 10 -11 10 -2 0
-4 -4 -4 -10z"/>
<path d="M2646 1599 c3 -5 12 -9 21 -9 19 0 9 13 -12 16 -8 1 -13 -2 -9 -7z"/>
<path d="M2697 1580 c-3 -11 -3 -20 -1 -20 2 0 8 9 14 20 6 11 7 20 2 20 -6 0
-12 -9 -15 -20z"/>
<path d="M621 1574 c0 -11 3 -14 6 -6 3 7 2 16 -1 19 -3 4 -6 -2 -5 -13z"/>
<path d="M640 1575 c0 -8 2 -15 4 -15 2 0 6 7 10 15 3 8 1 15 -4 15 -6 0 -10
-7 -10 -15z"/>
<path d="M2645 1550 c-3 -5 -2 -10 4 -10 5 0 13 5 16 10 3 6 2 10 -4 10 -5 0
-13 -4 -16 -10z"/>
<path d="M590 1546 c0 -19 24 -76 32 -76 13 0 9 18 -12 52 -11 18 -20 29 -20
24z"/>
<path d="M2955 1540 c-3 -5 -1 -10 4 -10 6 0 11 5 11 10 0 6 -2 10 -4 10 -3 0
-8 -4 -11 -10z"/>
<path d="M2650 1530 c-12 -8 -11 -10 8 -10 12 0 22 5 22 10 0 13 -11 13 -30 0z"/>
<path d="M2705 1530 c3 -5 8 -10 11 -10 2 0 4 5 4 10 0 6 -5 10 -11 10 -5 0
-7 -4 -4 -10z"/>
<path d="M521 1516 c-10 -12 -8 -13 8 -9 14 3 21 1 21 -8 0 -8 9 -25 20 -39
l20 -25 -16 48 c-16 48 -32 58 -53 33z"/>
<path d="M650 1496 c7 -20 5 -27 -13 -39 -12 -8 -19 -18 -15 -23 5 -4 16 3 27
14 10 12 23 22 30 22 6 0 11 4 11 10 0 5 -7 7 -15 4 -10 -4 -15 0 -15 15 0 12
-4 21 -10 21 -6 0 -6 -9 0 -24z"/>
<path d="M1585 1500 c-3 -5 -1 -10 4 -10 6 0 11 5 11 10 0 6 -2 10 -4 10 -3 0
-8 -4 -11 -10z"/>
<path d="M670 1435 c-7 -8 -8 -15 -2 -15 5 0 15 7 22 15 7 8 8 15 2 15 -5 0
-15 -7 -22 -15z"/>
<path d="M635 1410 c-4 -6 -3 -16 3 -22 6 -6 12 -6 17 2 4 6 3 16 -3 22 -6 6
-12 6 -17 -2z"/>
<path d="M667 1343 c30 -49 53 -76 53 -64 0 16 -51 91 -62 91 -4 0 -1 -12 9
-27z"/>
<path d="M2970 1322 c-14 -20 -28 -45 -32 -54 -4 -10 -14 -18 -22 -18 -9 0
-12 -7 -9 -21 4 -13 9 -17 15 -11 6 6 21 4 39 -5 17 -8 33 -13 36 -10 3 3 -11
13 -31 21 l-37 15 36 51 c20 28 35 55 33 60 -2 5 -14 -7 -28 -28z"/>
<path d="M730 1320 c0 -5 5 -10 10 -10 6 0 10 5 10 10 0 6 -4 10 -10 10 -5 0
-10 -4 -10 -10z"/>
<path d="M2788 1323 c7 -3 16 -2 19 1 4 3 -2 6 -13 5 -11 0 -14 -3 -6 -6z"/>
<path d="M2920 1315 c-7 -9 -10 -18 -7 -21 3 -3 10 4 17 15 13 25 8 27 -10 6z"/>
<path d="M1924 1298 c-3 -4 2 -8 10 -8 8 0 17 4 20 8 3 5 -2 9 -10 9 -8 0 -17
-4 -20 -9z"/>
<path d="M2976 1274 c-8 -21 -8 -24 3 -24 5 0 11 9 14 20 6 24 -8 27 -17 4z"/>
<path d="M2880 1270 c-8 -5 -11 -10 -6 -10 5 0 4 -6 -1 -12 -12 -16 -13 -49
-1 -42 20 12 27 -8 13 -36 -20 -38 -19 -53 1 -17 12 23 20 28 37 23 56 -16 77
-18 77 -7 0 6 -13 11 -29 11 -17 0 -42 10 -58 24 -24 21 -26 26 -15 50 12 27
7 32 -18 16z"/>
<path d="M1895 1240 c-3 -5 -1 -10 4 -10 6 0 11 5 11 10 0 6 -2 10 -4 10 -3 0
-8 -4 -11 -10z"/>
<path d="M2980 1119 c-8 -12 -21 -28 -29 -36 -7 -8 -11 -17 -8 -20 8 -7 56 48
57 65 0 17 -3 15 -20 -9z"/>
<path d="M2856 1101 c-4 -6 -5 -11 -1 -11 3 0 1 -9 -5 -20 -7 -14 -7 -20 0
-20 5 0 10 7 10 16 0 12 7 15 25 12 14 -3 28 -1 31 3 3 5 -3 9 -13 9 -11 0
-24 5 -30 11 -8 8 -13 8 -17 0z"/>
<path d="M2640 1090 c8 -5 20 -10 25 -10 6 0 3 5 -5 10 -8 5 -19 10 -25 10 -5
0 -3 -5 5 -10z"/>
<path d="M2605 1080 c-3 -5 -1 -10 4 -10 6 0 11 5 11 10 0 6 -2 10 -4 10 -3 0
-8 -4 -11 -10z"/>
<path d="M1855 1060 c3 -5 10 -10 16 -10 5 0 9 5 9 10 0 6 -7 10 -16 10 -8 0
-12 -4 -9 -10z"/>
<path d="M916 1032 c-7 -12 13 -95 26 -107 8 -7 9 -5 5 7 -3 9 -9 33 -13 52
-5 29 -3 36 9 36 9 0 23 -8 33 -17 12 -12 19 -14 21 -6 3 7 11 9 19 6 8 -3 14
0 14 6 0 6 -13 11 -29 11 -16 0 -41 4 -55 10 -14 5 -27 6 -30 2z"/>
<path d="M2790 1017 c0 -13 -5 -28 -11 -34 -6 -6 -8 -17 -4 -23 5 -8 13 2 21
26 16 47 17 54 4 54 -5 0 -10 -10 -10 -23z"/>
<path d="M1390 1020 c0 -13 18 -22 24 -11 3 5 -1 11 -9 15 -8 3 -15 1 -15 -4z"/>
<path d="M756 995 c-3 -9 -6 -31 -6 -48 0 -18 -4 -48 -10 -66 -9 -33 -7 -51 5
-39 6 6 25 161 20 166 -1 2 -5 -4 -9 -13z"/>
<path d="M1435 1000 c3 -5 8 -10 11 -10 2 0 4 5 4 10 0 6 -5 10 -11 10 -5 0
-7 -4 -4 -10z"/>
<path d="M1810 1000 c0 -5 11 -10 25 -10 14 0 25 5 25 10 0 6 -11 10 -25 10
-14 0 -25 -4 -25 -10z"/>
<path d="M1180 980 c0 -5 7 -10 15 -10 8 0 15 5 15 10 0 6 -7 10 -15 10 -8 0
-15 -4 -15 -10z"/>
<path d="M1325 980 c4 -6 11 -8 16 -5 14 9 11 15 -7 15 -8 0 -12 -5 -9 -10z"/>
<path d="M965 960 c3 -5 10 -10 16 -10 5 0 9 5 9 10 0 6 -7 10 -16 10 -8 0
-12 -4 -9 -10z"/>
<path d="M1201 954 c-1 -18 26 -37 34 -24 3 5 0 10 -9 10 -8 0 -17 6 -19 13
-4 7 -6 8 -6 1z"/>
<path d="M1325 950 c-4 -6 7 -10 24 -10 17 0 31 5 31 10 0 6 -11 10 -24 10
-14 0 -28 -4 -31 -10z"/>
<path d="M1158 943 c7 -3 16 -2 19 1 4 3 -2 6 -13 5 -11 0 -14 -3 -6 -6z"/>
<path d="M1405 940 c-17 -7 -17 -9 -2 -9 9 -1 17 -8 17 -18 0 -21 13 -8 17 17
3 22 -2 23 -32 10z"/>
<path d="M2728 943 c7 -3 16 -2 19 1 4 3 -2 6 -13 5 -11 0 -14 -3 -6 -6z"/>
<path d="M970 921 c0 -5 14 -12 30 -16 17 -4 30 -11 30 -16 0 -5 5 -9 10 -9 6
0 3 11 -7 25 -17 23 -63 35 -63 16z"/>
<path d="M1145 920 c3 -5 10 -10 16 -10 5 0 9 5 9 10 0 6 -7 10 -16 10 -8 0
-12 -4 -9 -10z"/>
<path d="M1197 909 c7 -7 15 -10 18 -7 3 3 -2 9 -12 12 -14 6 -15 5 -6 -5z"/>
<path d="M1365 903 c-35 -9 -40 -23 -7 -20 18 1 32 8 32 15 0 6 -1 11 -2 11
-2 -1 -12 -3 -23 -6z"/>
<path d="M970 891 c0 -10 30 -24 37 -17 3 2 -5 9 -16 16 -12 6 -21 7 -21 1z"/>
<path d="M1430 880 c-8 -5 -26 -10 -40 -10 -14 0 -32 -5 -40 -11 -11 -8 -8 -9
15 -5 17 2 47 7 68 11 20 3 37 10 37 15 0 13 -21 12 -40 0z"/>
<path d="M1765 849 c-17 -6 -16 -8 7 -8 15 -1 29 3 32 7 6 11 -14 11 -39 1z"/>
<path d="M960 845 c0 -2 9 -9 20 -15 16 -8 26 -7 42 5 22 15 21 15 -20 15 -23
0 -42 -2 -42 -5z"/>
<path d="M724 807 c-8 -34 -2 -42 13 -18 6 10 8 24 3 31 -6 10 -10 7 -16 -13z"/>
<path d="M1739 808 c-8 -16 -3 -48 6 -48 8 0 11 8 8 19 -3 13 1 21 14 24 15 4
14 5 -4 6 -13 0 -24 0 -24 -1z"/>
<path d="M980 790 c0 -10 14 -14 38 -11 8 1 20 -3 28 -10 11 -9 14 -8 14 4 0
8 -13 17 -31 21 -42 8 -49 8 -49 -4z"/>
<path d="M1440 770 c6 -11 15 -20 20 -20 14 0 12 9 -4 26 -21 20 -28 17 -16
-6z"/>
<path d="M1340 760 c0 -5 7 -7 15 -4 8 4 15 8 15 10 0 2 -7 4 -15 4 -8 0 -15
-4 -15 -10z"/>
<path d="M709 748 c-2 -31 -10 -75 -19 -102 -12 -36 -12 -46 -1 -46 8 0 20 42
27 99 2 13 8 27 15 31 6 4 8 13 5 19 -10 15 -26 14 -27 -1z"/>
<path d="M970 740 c0 -12 27 -12 55 0 16 7 13 9 -17 9 -21 1 -38 -3 -38 -9z"/>
<path d="M1798 743 c7 -3 16 -2 19 1 4 3 -2 6 -13 5 -11 0 -14 -3 -6 -6z"/>
<path d="M1368 732 c-10 -2 -18 -7 -18 -12 0 -10 58 -5 68 6 4 5 3 6 -2 2 -5
-4 -14 -4 -20 0 -6 5 -19 7 -28 4z"/>
<path d="M1435 720 c-3 -5 1 -10 9 -10 9 0 16 5 16 10 0 6 -4 10 -9 10 -6 0
-13 -4 -16 -10z"/>
<path d="M1410 696 c0 -9 40 -13 46 -5 3 5 -6 9 -20 9 -14 0 -26 -2 -26 -4z"/>
<path d="M406 647 c3 -10 9 -15 12 -12 3 3 0 11 -7 18 -10 9 -11 8 -5 -6z"/>
<path d="M1775 630 c-3 -5 1 -10 9 -10 8 0 18 5 21 10 3 6 -1 10 -9 10 -8 0
-18 -4 -21 -10z"/>
<path d="M360 611 c0 -9 30 -24 36 -18 2 1 -6 8 -16 15 -11 7 -20 8 -20 3z"/>
<path d="M1728 598 c5 -5 16 -8 23 -6 8 3 3 7 -10 11 -17 4 -21 3 -13 -5z"/>
<path d="M324 551 c-6 -27 -11 -94 -13 -148 -2 -96 -33 -321 -51 -376 -5 -17
-5 -27 1 -27 5 0 9 1 9 3 0 2 9 46 20 97 11 51 20 106 20 120 0 15 2 29 5 32
3 2 37 -2 75 -11 80 -18 81 -19 56 -126 -14 -60 -13 -80 5 -69 5 3 7 9 5 13
-3 4 2 39 10 77 23 112 24 110 -51 118 -36 4 -72 9 -80 12 -22 9 -19 37 3 30
9 -3 35 -8 57 -12 55 -9 35 8 -23 21 -44 9 -47 12 -46 40 1 17 3 64 5 105 1
41 6 85 11 98 4 13 4 30 0 38 -5 10 -11 -1 -18 -35z"/>
<path d="M1110 556 c0 -25 4 -47 9 -50 5 -3 9 17 9 44 1 28 -3 50 -9 50 -5 0
-9 -20 -9 -44z"/>
<path d="M1142 594 c12 -11 120 -16 113 -5 -3 6 -31 11 -62 11 -31 0 -54 -3
-51 -6z"/>
<path d="M652 503 c-13 -49 -25 -100 -28 -115 -2 -15 -9 -39 -14 -53 -6 -15
-10 -34 -10 -43 1 -25 31 33 35 66 1 15 4 27 5 27 1 0 4 9 5 20 5 41 38 160
47 173 7 8 6 12 -3 12 -10 0 -22 -30 -37 -87z"/>
<path d="M710 580 c0 -5 4 -10 9 -10 6 0 13 5 16 10 3 6 -1 10 -9 10 -9 0 -16
-4 -16 -10z"/>
<path d="M1700 581 c0 -13 29 -35 37 -27 3 3 1 6 -5 6 -7 0 -12 7 -12 15 0 8
-4 15 -10 15 -5 0 -10 -4 -10 -9z"/>
<path d="M840 560 c0 -5 5 -10 11 -10 5 0 7 5 4 10 -3 6 -8 10 -11 10 -2 0 -4
-4 -4 -10z"/>
<path d="M1145 560 c-4 -7 13 -9 51 -5 76 7 82 15 11 15 -31 0 -59 -5 -62 -10z"/>
<path d="M1457 550 c3 -11 7 -20 9 -20 2 0 4 9 4 20 0 11 -4 20 -9 20 -5 0 -7
-9 -4 -20z"/>
<path d="M1770 559 c0 -5 5 -7 10 -4 6 3 10 8 10 11 0 2 -4 4 -10 4 -5 0 -10
-5 -10 -11z"/>
<path d="M360 544 c0 -8 5 -12 10 -9 6 4 8 11 5 16 -9 14 -15 11 -15 -7z"/>
<path d="M1380 543 c0 -7 4 -13 9 -13 5 0 11 6 14 13 3 8 -1 14 -9 14 -8 0
-14 -6 -14 -14z"/>
<path d="M984 543 c11 -12 47 -14 64 -3 13 7 6 9 -27 10 -24 0 -41 -3 -37 -7z"/>
<path d="M1681 521 c-9 -16 -8 -18 9 -14 21 6 26 18 11 28 -6 3 -15 -3 -20
-14z"/>
<path d="M1190 509 c0 -5 11 -9 25 -9 14 0 25 2 25 4 0 2 -11 6 -25 8 -14 3
-25 1 -25 -3z"/>
<path d="M1433 513 c16 -4 18 -11 13 -41 -4 -27 -3 -31 4 -17 5 11 9 30 9 43
1 17 -4 22 -21 21 -19 -1 -20 -2 -5 -6z"/>
<path d="M370 490 c0 -12 28 -25 36 -17 3 3 -4 10 -15 17 -15 7 -21 7 -21 0z"/>
<path d="M831 484 c0 -11 3 -14 6 -6 3 7 2 16 -1 19 -3 4 -6 -2 -5 -13z"/>
<path d="M1380 490 c-24 -8 -23 -8 8 -9 17 -1 32 4 32 9 0 11 -5 11 -40 0z"/>
<path d="M1150 480 c0 -13 60 -13 80 0 11 7 2 10 -32 10 -27 0 -48 -4 -48 -10z"/>
<path d="M1380 460 c20 -13 43 -13 35 0 -3 6 -16 10 -28 10 -18 0 -19 -2 -7
-10z"/>
<path d="M940 440 c0 -5 14 -10 30 -10 17 0 30 5 30 10 0 6 -13 10 -30 10 -16
0 -30 -4 -30 -10z"/>
<path d="M1010 440 c0 -5 11 -10 25 -10 14 0 25 5 25 10 0 6 -11 10 -25 10
-14 0 -25 -4 -25 -10z"/>
<path d="M1140 439 c0 -5 5 -7 10 -4 6 3 10 8 10 11 0 2 -4 4 -10 4 -5 0 -10
-5 -10 -11z"/>
<path d="M740 420 c0 -19 3 -21 12 -12 9 9 9 15 0 24 -9 9 -12 7 -12 -12z"/>
<path d="M1674 428 c-3 -5 27 -8 65 -8 44 0 71 4 71 11 0 12 -129 9 -136 -3z"/>
<path d="M670 420 c0 -6 7 -10 15 -10 8 0 15 2 15 4 0 2 -7 6 -15 10 -8 3 -15
1 -15 -4z"/>
<path d="M1378 423 c-10 -2 -18 -11 -18 -18 0 -11 7 -12 32 -4 17 5 33 7 36 5
2 -2 -5 -37 -16 -78 -11 -40 -25 -104 -32 -143 -6 -38 -18 -92 -26 -119 -17
-61 -18 -79 0 -46 7 14 20 59 29 100 9 41 25 116 37 165 24 109 25 131 4 139
-17 6 -19 6 -46 -1z"/>
<path d="M767 413 c-4 -3 -7 -15 -7 -25 0 -11 -5 -16 -10 -13 -6 4 -13 -7 -16
-24 -4 -17 -10 -28 -14 -26 -5 3 -8 -20 -8 -50 0 -30 -4 -60 -9 -67 -6 -7 -13
-26 -17 -42 -6 -26 -5 -28 8 -17 9 7 13 17 10 22 -3 5 4 29 15 52 11 23 22 62
24 87 5 49 2 48 91 39 28 -3 41 0 44 10 3 10 0 12 -12 8 -14 -6 -17 -2 -15 21
0 4 6 6 14 4 7 -1 16 2 20 8 4 6 -6 10 -24 10 -16 0 -36 3 -45 6 -10 4 -16 1
-16 -10 0 -9 6 -13 14 -10 7 3 16 -2 19 -11 5 -12 0 -15 -24 -13 -36 3 -45 13
-29 33 12 15 0 22 -13 8z"/>
<path d="M1535 399 c-11 -17 0 -20 21 -4 17 13 17 14 2 15 -9 0 -20 -5 -23
-11z"/>
<path d="M1690 389 c0 -5 5 -7 10 -4 6 3 10 8 10 11 0 2 -4 4 -10 4 -5 0 -10
-5 -10 -11z"/>
<path d="M1720 390 c0 -5 5 -10 10 -10 6 0 10 5 10 10 0 6 -4 10 -10 10 -5 0
-10 -4 -10 -10z"/>
<path d="M1780 389 c0 -5 5 -7 10 -4 6 3 10 8 10 11 0 2 -4 4 -10 4 -5 0 -10
-5 -10 -11z"/>
<path d="M1921 384 c0 -11 3 -14 6 -6 3 7 2 16 -1 19 -3 4 -6 -2 -5 -13z"/>
<path d="M1667 383 c-4 -3 -7 -18 -7 -31 0 -14 3 -22 7 -19 3 4 12 2 20 -4 10
-9 13 -8 13 5 0 9 -6 15 -12 14 -8 -2 -13 7 -12 20 1 24 0 25 -9 15z"/>
<path d="M1817 293 c-9 -43 -24 -107 -32 -143 -26 -113 -33 -150 -26 -150 4 0
17 46 30 103 13 56 25 108 27 115 2 7 21 12 48 12 25 0 48 5 52 11 5 9 -8 10
-45 7 -44 -4 -51 -3 -47 11 9 29 18 111 14 111 -3 0 -13 -35 -21 -77z"/>
<path d="M940 349 c0 -5 5 -7 10 -4 6 3 10 8 10 11 0 2 -4 4 -10 4 -5 0 -10
-5 -10 -11z"/>
<path d="M1000 348 c0 -5 14 -8 30 -8 17 0 30 4 30 9 0 4 -13 8 -30 7 -16 -1
-30 -4 -30 -8z"/>
<path d="M1130 348 c0 -11 72 -10 90 2 10 6 -2 8 -38 7 -28 -1 -52 -5 -52 -9z"/>
<path d="M1736 348 c3 -4 9 -8 15 -8 5 0 9 4 9 8 0 5 -7 9 -15 9 -8 0 -12 -4
-9 -9z"/>
<path d="M470 345 c0 -2 14 -11 30 -20 17 -9 30 -12 30 -7 0 5 -11 14 -25 20
-28 13 -35 14 -35 7z"/>
<path d="M2549 332 c-30 -31 -34 -56 -43 -227 -5 -103 -4 -105 4 -30 18 157
32 245 40 245 5 0 7 -17 4 -37 -4 -33 -2 -31 10 12 8 28 15 51 16 53 1 8 -17
-2 -31 -16z"/>
<path d="M360 330 c0 -5 5 -10 10 -10 6 0 10 5 10 10 0 6 -4 10 -10 10 -5 0
-10 -4 -10 -10z"/>
<path d="M1367 320 c-12 -14 -15 -26 -9 -37 10 -17 16 -11 26 30 8 32 6 33
-17 7z"/>
<path d="M1485 330 c-11 -4 -23 -6 -27 -4 -4 3 -10 -1 -13 -7 -5 -7 5 -9 31
-5 41 7 50 11 37 19 -4 2 -17 1 -28 -3z"/>
<path d="M1875 330 c-3 -5 -1 -10 4 -10 6 0 11 5 11 10 0 6 -2 10 -4 10 -3 0
-8 -4 -11 -10z"/>
<path d="M782 323 c-6 -2 -9 -9 -6 -14 3 -6 0 -17 -7 -25 -6 -8 -9 -17 -6 -20
9 -9 27 5 27 22 0 8 4 14 9 14 5 0 11 7 15 15 5 15 -7 18 -32 8z"/>
<path d="M850 320 c-12 -8 -10 -10 8 -10 13 0 20 4 17 10 -7 12 -6 12 -25 0z"/>
<path d="M935 320 c-3 -5 -1 -10 4 -10 6 0 11 5 11 10 0 6 -2 10 -4 10 -3 0
-8 -4 -11 -10z"/>
<path d="M968 323 c7 -3 16 -2 19 1 4 3 -2 6 -13 5 -11 0 -14 -3 -6 -6z"/>
<path d="M450 306 c0 -9 11 -23 25 -32 14 -9 25 -26 25 -37 0 -11 3 -17 7 -14
3 4 12 2 19 -4 13 -11 34 -5 34 11 0 4 -8 6 -19 3 -14 -3 -20 2 -25 22 -4 15
-10 25 -13 21 -3 -3 -17 6 -30 20 -16 18 -23 21 -23 10z"/>
<path d="M1120 312 c0 -12 65 -13 92 -2 18 7 10 9 -34 9 -32 1 -58 -3 -58 -7z"/>
<path d="M1030 298 c0 -6 -12 -8 -30 -4 -17 3 -30 1 -30 -4 0 -12 87 -13 94
-1 3 5 -3 11 -14 14 -11 3 -20 0 -20 -5z"/>
<path d="M2460 300 c0 -13 20 -13 40 0 12 8 9 10 -12 10 -16 0 -28 -4 -28 -10z"/>
<path d="M2611 294 c0 -11 3 -14 6 -6 3 7 2 16 -1 19 -3 4 -6 -2 -5 -13z"/>
<path d="M927 286 c-4 -10 1 -12 14 -9 23 6 24 9 5 16 -8 3 -17 0 -19 -7z"/>
<path d="M1635 280 c-3 -5 -1 -10 4 -10 6 0 11 5 11 10 0 6 -2 10 -4 10 -3 0
-8 -4 -11 -10z"/>
<path d="M1660 280 c0 -13 11 -13 30 0 12 8 11 10 -7 10 -13 0 -23 -4 -23 -10z"/>
<path d="M1873 283 c-34 -7 -28 -20 7 -15 16 2 27 8 24 13 -3 5 -6 8 -7 8 -1
-1 -12 -4 -24 -6z"/>
<path d="M2325 280 c-19 -8 -19 -9 3 -9 12 -1 22 4 22 9 0 6 -1 10 -2 9 -2 0
-12 -4 -23 -9z"/>
<path d="M1485 270 c-20 -9 -20 -9 0 -9 11 0 27 4 35 9 13 9 13 10 0 9 -8 0
-24 -4 -35 -9z"/>
<path d="M584 246 c-3 -14 -14 -30 -22 -35 -14 -8 -12 -14 16 -40 37 -36 58
-41 42 -11 -6 11 -15 18 -20 15 -14 -9 -21 31 -10 60 6 15 8 30 6 33 -3 2 -8
-7 -12 -22z"/>
<path d="M810 265 c0 -2 8 -8 18 -14 12 -6 21 -5 30 5 11 12 8 14 -18 14 -16
0 -30 -2 -30 -5z"/>
<path d="M1195 258 c-16 -5 -42 -6 -57 -4 -18 4 -28 1 -28 -7 0 -6 -7 -48 -15
-92 -7 -44 -16 -95 -20 -113 -3 -19 -2 -31 4 -28 5 3 12 27 16 53 12 89 13 91
56 95 35 3 40 1 35 -15 -3 -13 0 -17 11 -13 8 3 28 6 44 6 16 0 29 5 29 11 0
7 -11 8 -30 4 -19 -4 -30 -3 -30 5 0 18 43 28 74 17 21 -7 30 -6 37 4 7 11 -2
15 -41 17 -28 2 -50 7 -50 13 0 5 5 9 10 9 6 0 10 5 10 11 0 5 -4 8 -9 4 -5
-3 -11 3 -13 13 -2 16 -8 17 -33 10z m27 -20 c3 -7 0 -22 -6 -34 -8 -17 -21
-23 -56 -26 -25 -3 -46 -4 -46 -4 -1 1 1 15 3 33 5 28 9 32 42 36 20 2 41 4
48 5 6 1 13 -3 15 -10z"/>
<path d="M1175 210 c-3 -5 -1 -10 4 -10 6 0 11 5 11 10 0 6 -2 10 -4 10 -3 0
-8 -4 -11 -10z"/>
<path d="M1425 260 c-3 -5 3 -10 14 -10 12 0 21 5 21 10 0 6 -6 10 -14 10 -8
0 -18 -4 -21 -10z"/>
<path d="M1711 259 c-14 -5 -30 -8 -38 -5 -7 3 -15 0 -19 -6 -5 -8 6 -9 36 -4
45 7 89 26 60 25 -8 0 -26 -5 -39 -10z"/>
<path d="M911 198 c-7 -35 -14 -74 -15 -88 -2 -14 -6 -44 -10 -67 -10 -70 1
-49 19 36 l18 79 46 7 c26 3 53 5 60 3 8 -2 16 3 18 11 4 9 0 11 -13 8 -47
-14 -108 -11 -103 6 0 1 2 17 3 35 6 55 -10 35 -23 -30z"/>
<path d="M1360 260 c-1 -3 -3 -14 -5 -25 -2 -11 -13 -60 -25 -110 -11 -50 -19
-99 -18 -110 2 -11 16 33 31 97 16 65 26 126 24 135 -3 10 -6 16 -7 13z"/>
<path d="M959 241 c8 -5 21 -7 29 -4 8 3 17 1 21 -5 4 -6 17 -9 29 -5 41 10
22 23 -35 23 -38 0 -53 -3 -44 -9z"/>
<path d="M2497 243 c-4 -3 -7 -11 -7 -17 0 -6 5 -5 12 2 6 6 9 14 7 17 -3 3
-9 2 -12 -2z"/>
<path d="M2586 241 c-4 -5 -2 -12 3 -15 5 -4 12 -2 15 3 4 5 2 12 -3 15 -5 4
-12 2 -15 -3z"/>
<path d="M2039 236 c-2 -2 -24 -6 -49 -9 -52 -6 -80 -15 -80 -28 0 -4 7 -6 16
-2 14 5 16 2 11 -18 -14 -57 -29 -159 -25 -171 3 -7 13 34 23 90 10 57 23 106
29 108 9 3 49 9 94 13 16 1 16 21 -1 21 -8 0 -16 -2 -18 -4z"/>
<path d="M755 220 c-3 -5 1 -10 10 -10 9 0 13 5 10 10 -3 6 -8 10 -10 10 -2 0
-7 -4 -10 -10z"/>
<path d="M378 203 c6 -2 18 -2 25 0 6 3 1 5 -13 5 -14 0 -19 -2 -12 -5z"/>
<path d="M486 123 c-18 -99 -20 -123 -8 -123 9 0 37 198 29 206 -2 3 -12 -35
-21 -83z"/>
<path d="M838 203 c7 -3 16 -2 19 1 4 3 -2 6 -13 5 -11 0 -14 -3 -6 -6z"/>
<path d="M1865 202 c-11 -2 -24 -8 -30 -14 -9 -9 43 -1 54 8 8 7 -4 10 -24 6z"/>
<path d="M2467 190 c-3 -11 -3 -20 -1 -20 2 0 8 9 14 20 6 11 7 20 2 20 -6 0
-12 -9 -15 -20z"/>
<path d="M1506 193 c-4 -4 -15 -8 -24 -8 -9 -1 -29 -2 -44 -3 -16 -1 -28 -7
-28 -12 0 -6 10 -8 23 -6 12 3 39 8 60 11 20 3 37 10 37 15 0 12 -14 13 -24 3z"/>
<path d="M743 175 c0 -10 9 -20 19 -23 21 -5 22 -11 4 -34 -16 -22 -26 -23
-26 -3 0 8 -4 15 -9 15 -5 0 -7 -8 -4 -18 3 -13 -6 -23 -36 -38 -23 -10 -44
-27 -47 -37 -3 -9 -10 -15 -15 -12 -5 4 -9 -1 -9 -9 0 -24 14 -19 39 15 16 21
29 29 42 26 12 -3 19 0 19 9 0 8 7 14 16 12 9 -2 21 6 28 17 6 11 14 22 17 25
7 6 29 46 29 53 0 3 -9 7 -20 10 -14 4 -20 0 -20 -11 0 -13 -2 -13 -13 2 -13
18 -14 18 -14 1z"/>
<path d="M1688 173 c6 -2 18 -2 25 0 6 3 1 5 -13 5 -14 0 -19 -2 -12 -5z"/>
<path d="M1870 170 c0 -5 5 -10 11 -10 5 0 7 5 4 10 -3 6 -8 10 -11 10 -2 0
-4 -4 -4 -10z"/>
<path d="M327 160 c6 -7 27 -13 45 -14 18 -1 35 -4 38 -7 3 -4 11 -1 18 7 11
12 9 14 -10 14 -13 0 -41 3 -63 6 -32 5 -38 4 -28 -6z"/>
<path d="M526 154 c-3 -8 1 -14 9 -14 20 0 28 17 11 23 -8 3 -17 -1 -20 -9z"/>
<path d="M1620 160 c0 -12 28 -21 35 -11 2 5 -4 11 -15 14 -11 3 -20 2 -20 -3z"/>
<path d="M1906 158 c-14 -42 -17 -54 -21 -107 -5 -55 -4 -54 15 24 17 72 22
126 6 83z"/>
<path d="M2597 149 c-22 -11 -37 -23 -34 -25 6 -7 77 28 77 38 0 10 2 11 -43
-13z"/>
<path d="M640 136 c0 -8 -3 -21 -6 -30 -3 -9 -2 -16 4 -16 5 0 12 8 16 18 3 9
9 23 12 30 3 7 -1 12 -10 12 -9 0 -16 -6 -16 -14z"/>
<path d="M830 130 c0 -5 5 -10 10 -10 6 0 10 5 10 10 0 6 -4 10 -10 10 -5 0
-10 -4 -10 -10z"/>
<path d="M940 126 c0 -11 8 -12 36 -6 51 12 54 20 6 20 -29 0 -42 -4 -42 -14z"/>
<path d="M1850 130 c0 -5 -7 -10 -15 -10 -8 0 -15 -5 -15 -10 0 -7 6 -7 20 0
18 10 28 30 15 30 -3 0 -5 -4 -5 -10z"/>
<path d="M2537 133 c-4 -3 -7 -36 -7 -71 0 -84 11 -74 13 12 1 36 2 66 1 66 0
0 -4 -3 -7 -7z"/>
<path d="M1141 114 c0 -11 3 -14 6 -6 3 7 2 16 -1 19 -3 4 -6 -2 -5 -13z"/>
<path d="M1408 123 c7 -3 16 -2 19 1 4 3 -2 6 -13 5 -11 0 -14 -3 -6 -6z"/>
<path d="M1635 103 c-3 -14 -4 -28 0 -31 3 -3 5 0 5 6 0 6 7 17 15 25 12 13
12 16 1 20 -9 4 -16 -4 -21 -20z"/>
<path d="M1707 115 c-4 -8 -2 -17 3 -20 6 -4 10 3 10 14 0 25 -6 27 -13 6z"/>
<path d="M325 110 c-3 -5 -1 -10 4 -10 6 0 11 5 11 10 0 6 -2 10 -4 10 -3 0
-8 -4 -11 -10z"/>
<path d="M603 110 c2 -8 -5 -23 -15 -34 -10 -11 -17 -27 -16 -35 2 -11 -4 -15
-19 -13 -12 2 -25 -2 -29 -9 -5 -9 -1 -11 14 -7 12 3 23 1 26 -6 3 -7 5 -7 5
2 1 7 6 10 11 7 6 -3 10 3 10 13 0 11 7 22 15 26 17 6 19 34 4 56 -9 13 -10
13 -6 0z"/>
<path d="M1173 97 c-7 -14 -14 -42 -17 -64 -4 -25 -3 -31 2 -18 7 16 18 19 58
18 l49 -2 -46 12 c-43 11 -46 14 -37 36 12 34 5 49 -9 18z"/>
<path d="M1247 113 c-20 -2 -35 -8 -32 -14 7 -10 55 -12 79 -3 19 7 22 25 4
22 -7 -1 -30 -3 -51 -5z"/>
<path d="M2030 110 c-13 -8 -12 -10 3 -10 9 0 17 5 17 10 0 12 -1 12 -20 0z"/>
<path d="M2188 113 c7 -3 16 -2 19 1 4 3 -2 6 -13 5 -11 0 -14 -3 -6 -6z"/>
<path d="M965 90 c-27 -7 -26 -8 13 -7 23 0 42 5 42 9 0 9 -13 9 -55 -2z"/>
<path d="M2445 90 c-3 -5 1 -10 9 -10 9 0 16 5 16 10 0 6 -4 10 -9 10 -6 0
-13 -4 -16 -10z"/>
<path d="M1840 75 c-7 -9 -8 -15 -2 -15 5 0 12 7 16 15 3 8 4 15 2 15 -2 0 -9
-7 -16 -15z"/>
<path d="M2560 74 c0 -8 5 -12 10 -9 6 3 10 10 10 16 0 5 -4 9 -10 9 -5 0 -10
-7 -10 -16z"/>
<path d="M310 71 c0 -4 26 -9 58 -9 42 0 51 2 32 8 -34 11 -90 12 -90 1z"/>
<path d="M1470 70 c20 -13 33 -13 25 0 -3 6 -14 10 -23 10 -15 0 -15 -2 -2
-10z"/>
<path d="M1390 60 c0 -5 5 -10 11 -10 5 0 7 5 4 10 -3 6 -8 10 -11 10 -2 0 -4
-4 -4 -10z"/>
<path d="M178 43 c6 -2 18 -2 25 0 6 3 1 5 -13 5 -14 0 -19 -2 -12 -5z"/>
<path d="M925 40 c-3 -5 1 -10 9 -10 9 0 16 5 16 10 0 6 -4 10 -9 10 -6 0 -13
-4 -16 -10z"/>
<path d="M970 40 c0 -6 12 -10 27 -10 29 0 24 12 -7 17 -11 2 -20 -2 -20 -7z"/>
<path d="M1586 35 c-3 -8 -1 -15 4 -15 6 0 10 7 10 15 0 8 -2 15 -4 15 -2 0
-6 -7 -10 -15z"/>
<path d="M1275 30 c3 -5 8 -10 11 -10 2 0 4 5 4 10 0 6 -5 10 -11 10 -5 0 -7
-4 -4 -10z"/>
<path d="M343 23 c9 -2 23 -2 30 0 6 3 -1 5 -18 5 -16 0 -22 -2 -12 -5z"/>
<path d="M398 23 c7 -3 16 -2 19 1 4 3 -2 6 -13 5 -11 0 -14 -3 -6 -6z"/>
<path d="M436 15 c8 -19 14 -19 14 0 0 8 -4 15 -10 15 -5 0 -7 -7 -4 -15z"/>
<path d="M1120 15 c0 -8 2 -15 4 -15 2 0 6 7 10 15 3 8 1 15 -4 15 -6 0 -10
-7 -10 -15z"/>
<path d="M2028 23 c7 -3 16 -2 19 1 4 3 -2 6 -13 5 -11 0 -14 -3 -6 -6z"/>
</g>
</svg>
